<svg width="102" height="47" viewBox="0 0 102 47" fill="none" xmlns="http://www.w3.org/2000/svg">
<path d="M89.3871 41.3152C87.1068 41.3152 85.005 40.958 83.0818 40.2437C81.1861 39.5019 79.524 38.4579 78.0953 37.1117C76.6941 35.7655 75.5952 34.1857 74.7984 32.3724C74.0292 30.5592 73.6445 28.5673 73.6445 26.3969C73.6445 24.2264 74.0292 22.2346 74.7984 20.4213C75.5952 18.608 76.7079 17.0282 78.1365 15.682C79.5652 14.3358 81.2411 13.3055 83.1643 12.5912C85.0874 11.8494 87.2029 11.4785 89.5107 11.4785C92.0658 11.4785 94.3599 11.9044 96.3929 12.7561C98.4535 13.6077 100.184 14.8441 101.586 16.465L97.2996 20.4213C96.2556 19.3223 95.1154 18.5118 93.8791 17.9898C92.6428 17.4404 91.2965 17.1656 89.8404 17.1656C88.4392 17.1656 87.1617 17.3854 86.0078 17.825C84.8539 18.2646 83.8511 18.8965 82.9994 19.7207C82.1752 20.5449 81.5296 21.5202 81.0625 22.6467C80.6229 23.7731 80.4031 25.0232 80.4031 26.3969C80.4031 27.7431 80.6229 28.9794 81.0625 30.1058C81.5296 31.2323 82.1752 32.2213 82.9994 33.073C83.8511 33.8972 84.8402 34.5291 85.9666 34.9687C87.1205 35.4083 88.3843 35.6281 89.758 35.6281C91.0767 35.6281 92.3543 35.422 93.5906 35.0099C94.8544 34.5704 96.077 33.8423 97.2584 32.8258L101.05 37.6474C99.4838 38.8288 97.6567 39.7355 95.5687 40.3674C93.5082 40.9993 91.4476 41.3152 89.3871 41.3152ZM94.9506 36.782V25.9435H101.05V37.6474L94.9506 36.782Z" fill="black"/>
<path d="M61.5405 41.3152C59.2327 41.3152 57.0211 41.013 54.9056 40.4086C52.7901 39.7767 51.0867 38.9662 49.7954 37.9771L52.062 32.9494C53.2983 33.8286 54.7545 34.5566 56.4304 35.1336C58.1337 35.683 59.8509 35.9578 61.5817 35.9578C62.9005 35.9578 63.9582 35.8342 64.755 35.5869C65.5792 35.3121 66.1836 34.9412 66.5682 34.4742C66.9529 34.0071 67.1452 33.4714 67.1452 32.867C67.1452 32.0977 66.843 31.4933 66.2386 31.0537C65.6341 30.5866 64.8374 30.2157 63.8483 29.941C62.8593 29.6388 61.7603 29.364 60.5515 29.1168C59.3701 28.842 58.175 28.5124 56.9661 28.1277C55.7847 27.7431 54.6995 27.2486 53.7104 26.6441C52.7214 26.0397 51.9109 25.243 51.279 24.2539C50.6746 23.2648 50.3724 22.001 50.3724 20.4625C50.3724 18.8141 50.8119 17.3167 51.6911 15.9705C52.5978 14.5968 53.944 13.5116 55.7298 12.7148C57.5431 11.8906 59.8097 11.4785 62.5296 11.4785C64.3429 11.4785 66.1287 11.6983 67.887 12.1379C69.6453 12.55 71.1976 13.1819 72.5438 14.0336L70.4833 19.1025C69.1371 18.3333 67.7908 17.77 66.4446 17.4129C65.0984 17.0282 63.7796 16.8359 62.4884 16.8359C61.1971 16.8359 60.1393 16.987 59.3151 17.2893C58.4909 17.5915 57.9002 17.9898 57.5431 18.4844C57.1859 18.9514 57.0073 19.5009 57.0073 20.1328C57.0073 20.8746 57.3095 21.479 57.914 21.9461C58.5184 22.3857 59.3151 22.7428 60.3042 23.0176C61.2933 23.2923 62.3785 23.567 63.5598 23.8418C64.7687 24.1165 65.9638 24.4325 67.1452 24.7896C68.354 25.1468 69.453 25.6276 70.4421 26.232C71.4311 26.8364 72.2279 27.6332 72.8323 28.6222C73.4642 29.6113 73.7802 30.8614 73.7802 32.3724C73.7802 33.9934 73.3268 35.477 72.4202 36.8232C71.5136 38.1694 70.1536 39.2547 68.3403 40.0789C66.5545 40.9031 64.2879 41.3152 61.5405 41.3152Z" fill="black"/>
<path d="M34.8086 24.956H48.6554V30.3135H34.8086V24.956ZM35.3031 40.8222H28.627V11.9746H50.4275V17.332H35.3031V40.8222Z" fill="black"/>
<path d="M0 40.8222V11.9746H14.0941C17.7207 11.9746 20.4406 12.6615 22.2539 14.0352C24.0946 15.4089 25.015 17.2221 25.015 19.475C25.015 20.9861 24.6441 22.3048 23.9023 23.4312C23.1605 24.5302 22.144 25.3819 20.8527 25.9863C19.5614 26.5907 18.0778 26.893 16.4019 26.893L17.1849 25.2033C18.9982 25.2033 20.6054 25.5055 22.0066 26.1099C23.4078 26.6869 24.493 27.5523 25.2623 28.7062C26.059 29.8601 26.4574 31.275 26.4574 32.951C26.4574 35.4236 25.4821 37.3605 23.5314 38.7617C21.5808 40.1354 18.7097 40.8222 14.9183 40.8222H0ZM6.63495 35.7945H14.4238C16.1547 35.7945 17.4597 35.5198 18.3388 34.9703C19.2455 34.3933 19.6988 33.4867 19.6988 32.2504C19.6988 31.0415 19.2455 30.1486 18.3388 29.5717C17.4597 28.9672 16.1547 28.665 14.4238 28.665H6.14042V23.8021H13.2699C14.8909 23.8021 16.1272 23.5274 16.9789 22.9779C17.8581 22.401 18.2976 21.5355 18.2976 20.3816C18.2976 19.2552 17.8581 18.4172 16.9789 17.8678C16.1272 17.2908 14.8909 17.0023 13.2699 17.0023H6.63495V35.7945Z" fill="black"/>
<path d="M27.6299 0L33.1634 0.75956L26.8502 46.7525L21.3167 45.993L27.6299 0Z" fill="white"/>
<path d="M28.1313 11.877L28.8892 11.981L24.8154 41.6589L24.0576 41.5549L28.1313 11.877Z" fill="black"/>
</svg>
