<svg width="42" height="32" viewBox="0 0 42 32" fill="none" xmlns="http://www.w3.org/2000/svg">
<path d="M31.5108 13.7143C31.3575 13.7145 31.2057 13.685 31.0641 13.6275C30.9225 13.5701 30.7939 13.4858 30.6856 13.3795L26.0174 8.80805C25.8048 8.5925 25.6871 8.30381 25.6898 8.00416C25.6925 7.70451 25.8152 7.41786 26.0316 7.20597C26.248 6.99407 26.5407 6.87388 26.8467 6.87128C27.1527 6.86867 27.4475 6.98387 27.6676 7.19205L31.5108 10.9554L40.0222 2.6206C40.2423 2.41242 40.5371 2.29722 40.8431 2.29983C41.1491 2.30243 41.4418 2.42262 41.6582 2.63452C41.8746 2.84641 41.9973 3.13306 42 3.43271C42.0026 3.73236 41.885 4.02105 41.6724 4.2366L32.3359 13.3795C32.2276 13.4857 32.099 13.57 31.9574 13.6275C31.8159 13.685 31.6641 13.7144 31.5108 13.7143ZM28.0096 29.7143V22.9732C28.0077 22.0352 27.7122 21.1203 27.1627 20.352C26.6133 19.5836 25.8364 18.9988 24.9369 18.6763L20.3861 17.0558C16.2633 15.5915 11.7463 15.5915 7.62353 17.0558L3.07268 18.6763C2.17318 18.9988 1.39631 19.5836 0.84687 20.352C0.297428 21.1203 0.00184702 22.0352 0 22.9732V29.7143C0.000617934 30.3203 0.246733 30.9013 0.684334 31.3299C1.12194 31.7584 1.71527 31.9994 2.33413 32H25.6755C26.2943 31.9994 26.8877 31.7584 27.3253 31.3299C27.7629 30.9013 28.009 30.3203 28.0096 29.7143ZM25.6778 29.7143L25.6755 30.8571V29.7143H25.6778ZM19.5883 19.2031L24.1392 20.8237C24.5888 20.9854 24.9771 21.2781 25.2518 21.6624C25.5264 22.0467 25.6743 22.5041 25.6755 22.9732V29.7143H2.33413V22.9732C2.33531 22.5041 2.48318 22.0467 2.75785 21.6624C3.03252 21.2781 3.4208 20.9854 3.87046 20.8237L8.42134 19.2031C12.0289 17.9233 15.9807 17.9234 19.5883 19.2031ZM21.0072 6.85715C21.0072 5.50093 20.5965 4.17517 19.8271 3.04752C19.0576 1.91987 17.964 1.04097 16.6845 0.521972C15.405 0.00297111 13.997 -0.132823 12.6387 0.131761C11.2804 0.396345 10.0327 1.04942 9.05335 2.00841C8.07405 2.9674 7.40714 4.18923 7.13695 5.51938C6.86676 6.84954 7.00543 8.22828 7.53542 9.48126C8.06542 10.7342 8.96293 11.8052 10.1145 12.5587C11.266 13.3121 12.6199 13.7143 14.0048 13.7143C15.8613 13.7123 17.6412 12.9892 18.954 11.7037C20.2668 10.4182 21.0052 8.67516 21.0072 6.85715ZM18.6731 6.85715C18.6731 7.76129 18.3993 8.64513 17.8863 9.39689C17.3734 10.1487 16.6443 10.7346 15.7913 11.0806C14.9382 11.4266 13.9996 11.5171 13.0941 11.3407C12.1885 11.1643 11.3567 10.729 10.7038 10.0896C10.051 9.45031 9.60636 8.63576 9.42623 7.74899C9.2461 6.86222 9.33855 5.94305 9.69188 5.10774C10.0452 4.27242 10.6436 3.55846 11.4112 3.05614C12.1789 2.55383 13.0815 2.28572 14.0048 2.28572C15.2425 2.2871 16.429 2.76918 17.3042 3.62619C18.1794 4.4832 18.6716 5.64515 18.6731 6.85715Z" fill="white"/>
</svg>
