<svg width="36" height="42" viewBox="0 0 36 42" fill="none" xmlns="http://www.w3.org/2000/svg">
<path d="M35.2504 24.8234C35.2473 25.7903 34.9705 26.7362 34.4525 27.5497C33.9345 28.3633 33.1969 29.0106 32.3265 29.4156C32.1042 31.7189 31.1092 33.8767 29.5062 35.5322C27.9031 37.1877 25.7879 38.2418 23.5103 38.5201C23.2257 39.3839 22.6797 40.1359 21.9492 40.6702C21.2186 41.2045 20.3402 41.4942 19.4379 41.4984H18.0004C16.8566 41.4984 15.7597 41.0401 14.951 40.2243C14.1422 39.4086 13.6879 38.3021 13.6879 37.1484C13.6879 35.9947 14.1422 34.8883 14.951 34.0725C15.7597 33.2567 16.8566 32.7984 18.0004 32.7984H19.4379C20.3068 32.8007 21.1548 33.0678 21.8707 33.5645C22.5867 34.0613 23.1371 34.7647 23.4499 35.5824C24.8918 35.3502 26.2293 34.6805 27.2845 33.6625C28.3396 32.6445 29.0624 31.3265 29.3566 29.8839C28.6218 29.8468 27.929 29.527 27.4209 28.9902C26.9128 28.4534 26.6281 27.7406 26.6254 26.9984V22.6484C26.6254 21.8793 26.9283 21.1417 27.4674 20.5978C28.0066 20.054 28.7379 19.7484 29.5004 19.7484V15.3984C29.5004 12.3219 28.2888 9.37142 26.1321 7.196C23.9754 5.02058 21.0503 3.79844 18.0004 3.79844C14.9504 3.79844 12.0253 5.02058 9.86863 7.196C7.71196 9.37142 6.50036 12.3219 6.50036 15.3984V19.7484C7.26285 19.7484 7.99412 20.054 8.53329 20.5978C9.07246 21.1417 9.37536 21.8793 9.37536 22.6484V26.9984C9.37536 27.7676 9.07246 28.5052 8.53329 29.049C7.99412 29.5929 7.26285 29.8984 6.50036 29.8984H5.78161C4.64039 29.9009 3.5324 29.5111 2.64028 28.7932C1.74817 28.0753 1.12519 27.0723 0.874043 25.9493C0.622898 24.8264 0.758582 23.6507 1.25873 22.616C1.75887 21.5813 2.59362 20.7494 3.62536 20.2574V15.3984C3.62536 11.5528 5.13986 7.86467 7.8357 5.14539C10.5315 2.42611 14.1879 0.898438 18.0004 0.898438C21.8128 0.898438 25.4692 2.42611 28.165 5.14539C30.8609 7.86467 32.3754 11.5528 32.3754 15.3984V20.2574C33.2327 20.6676 33.9575 21.3139 34.4662 22.1219C34.9749 22.9298 35.2468 23.8663 35.2504 24.8234Z" fill="black"/>
</svg>
