<svg width="40" height="40" viewBox="0 0 40 40" fill="none" xmlns="http://www.w3.org/2000/svg">
<path fill-rule="evenodd" clip-rule="evenodd" d="M26.747 12.0529C27.1096 12.0627 27.4501 12.1921 27.7113 12.4407L28.9761 13.6775C29.5664 14.2535 29.4903 15.2588 28.8072 15.9276L17.7003 26.7675C17.1607 27.2945 16.1403 27.3322 15.5587 26.7675L10.4212 21.751C9.73812 21.0833 9.66582 20.079 10.2556 19.5041L11.5171 18.2684C12.1107 17.6924 13.1391 17.7625 13.8217 18.4275L16.6292 21.1696L25.4029 12.6052C25.7909 12.2304 26.283 12.0427 26.747 12.0529ZM24.1133 0.00223919C23.3881 -0.0231103 22.624 0.166741 21.8486 0.573411C20.1511 1.46442 18.8696 1.28158 17.3771 0.573411C16.5931 0.20072 15.8204 0.015184 15.1006 0.0362186C13.8978 0.0739732 12.8273 0.69962 12.0265 2.00377C11.0116 3.65742 9.79208 4.07272 8.15119 4.24207C5.79265 4.48101 4.29205 5.77599 4.22784 8.15991C4.17712 10.0983 3.33105 11.0654 1.99341 12.0325C0.0708531 13.4197 -0.575035 15.2874 0.56026 17.386C1.48458 19.0882 1.23798 20.346 0.56026 21.8524C-0.409381 24.0184 -0.0435398 25.9563 1.99341 27.206C3.64293 28.2216 4.05895 29.4341 4.22784 31.078C4.46904 33.4355 5.76567 34.9322 8.15119 34.9991C10.0872 35.0541 11.0601 35.8933 12.0265 37.2336C13.4597 39.2276 15.2441 39.7723 17.3771 38.6694C19.0951 37.7832 20.3448 37.972 21.8486 38.6694C24.0237 39.6828 25.772 39.2276 27.2024 37.2336C28.1688 35.8939 29.1417 35.0541 31.0778 34.9991C33.4638 34.9327 34.7599 33.436 35.0011 31.078C35.17 29.4341 35.586 28.2216 37.2356 27.206C39.2703 25.9569 39.6416 24.0184 38.6687 21.8524C37.991 20.346 37.7466 19.0882 38.6687 17.386C39.8067 15.2874 39.1608 13.4197 37.2356 12.0325C35.8952 11.0654 35.0551 10.0983 35.0011 8.15991C34.9391 5.77599 33.4363 4.48154 31.0778 4.24207C29.4336 4.07272 28.2196 3.65742 27.2024 2.00377C26.4044 0.69962 25.3166 0.0453872 24.1133 0.00223919Z" fill="#1C9CEA"/>
</svg>
