<svg width="26" height="24" viewBox="0 0 26 24" fill="none" xmlns="http://www.w3.org/2000/svg">
<path d="M6.07583 0.203125C5.83713 0.203125 5.60821 0.296682 5.43943 0.463214C5.27065 0.629746 5.17583 0.855613 5.17583 1.09113V2.43497H4.39883C3.44405 2.43497 2.52837 2.80919 1.85324 3.47532C1.17811 4.14145 0.798828 5.04492 0.798828 5.98697V19.8516C0.798828 20.7937 1.17811 21.6971 1.85324 22.3632C2.52837 23.0294 3.44405 23.4036 4.39883 23.4036H21.6008C22.5556 23.4036 23.4713 23.0294 24.1464 22.3632C24.8215 21.6971 25.2008 20.7937 25.2008 19.8516V5.98697C25.2008 5.04492 24.8215 4.14145 24.1464 3.47532C23.4713 2.80919 22.5556 2.43497 21.6008 2.43497H20.8238V1.09113C20.8238 0.855613 20.729 0.629746 20.5602 0.463214C20.3914 0.296682 20.1625 0.203125 19.9238 0.203125C19.6851 0.203125 19.4562 0.296682 19.2874 0.463214C19.1186 0.629746 19.0238 0.855613 19.0238 1.09113V2.43497H13.8998V1.09113C13.8998 0.855613 13.805 0.629746 13.6362 0.463214C13.4674 0.296682 13.2385 0.203125 12.9998 0.203125C12.7611 0.203125 12.5322 0.296682 12.3634 0.463214C12.1946 0.629746 12.0998 0.855613 12.0998 1.09113V2.43497H6.97583V1.09113C6.97583 0.855613 6.88101 0.629746 6.71222 0.463214C6.54344 0.296682 6.31452 0.203125 6.07583 0.203125ZM23.4008 19.8516C23.4008 20.3226 23.2112 20.7744 22.8736 21.1074C22.5361 21.4405 22.0782 21.6276 21.6008 21.6276H4.39883C3.92144 21.6276 3.4636 21.4405 3.12604 21.1074C2.78847 20.7744 2.59883 20.3226 2.59883 19.8516V10.1606H23.4008V19.8516ZM12.0998 4.21097V5.5548C12.0998 5.79032 12.1946 6.01618 12.3634 6.18272C12.5322 6.34925 12.7611 6.4428 12.9998 6.4428C13.2385 6.4428 13.4674 6.34925 13.6362 6.18272C13.805 6.01618 13.8998 5.79032 13.8998 5.5548V4.21097H19.0238V5.5548C19.0238 5.79032 19.1186 6.01618 19.2874 6.18272C19.4562 6.34925 19.6851 6.4428 19.9238 6.4428C20.1625 6.4428 20.3914 6.34925 20.5602 6.18272C20.729 6.01618 20.8238 5.79032 20.8238 5.5548V4.21097H21.6008C22.0782 4.21097 22.5361 4.39808 22.8736 4.73114C23.2112 5.06421 23.4008 5.51594 23.4008 5.98697V8.38457H2.59883V5.98697C2.59883 5.51594 2.78847 5.06421 3.12604 4.73114C3.4636 4.39808 3.92144 4.21097 4.39883 4.21097H5.17583V5.5548C5.17583 5.79032 5.27065 6.01618 5.43943 6.18272C5.60821 6.34925 5.83713 6.4428 6.07583 6.4428C6.31452 6.4428 6.54344 6.34925 6.71222 6.18272C6.88101 6.01618 6.97583 5.79032 6.97583 5.5548V4.21097H12.0998Z" fill="#9C9C9C"/>
</svg>
