<svg width="20" height="20" viewBox="0 0 20 20" fill="none" xmlns="http://www.w3.org/2000/svg">
<path d="M16.9771 2.68637H15.1288V1.47947C15.1288 1.29118 15.054 1.11061 14.9209 0.977468C14.7878 0.844328 14.6072 0.769531 14.4189 0.769531C14.2306 0.769531 14.05 0.844328 13.9169 0.977468C13.7838 1.11061 13.709 1.29118 13.709 1.47947V2.68637H6.0487V1.47947C6.0487 1.29118 5.9739 1.11061 5.84076 0.977468C5.70762 0.844328 5.52704 0.769531 5.33876 0.769531C5.15047 0.769531 4.96989 0.844328 4.83675 0.977468C4.70361 1.11061 4.62882 1.29118 4.62882 1.47947V2.68637H2.60312C1.91273 2.68637 1.25061 2.96063 0.762435 3.44881C0.274256 3.93699 0 4.5991 0 5.28949V16.6249C0 16.9667 0.0673316 17.3052 0.19815 17.6211C0.328969 17.9369 0.520714 18.2238 0.762435 18.4656C1.00416 18.7073 1.29112 18.899 1.60695 19.0298C1.92277 19.1607 2.26127 19.228 2.60312 19.228H16.9771C17.3189 19.228 17.6574 19.1607 17.9732 19.0298C18.2891 18.899 18.576 18.7073 18.8177 18.4656C19.0595 18.2238 19.2512 17.9369 19.382 17.6211C19.5128 17.3052 19.5802 16.9667 19.5802 16.6249V5.28949C19.5802 4.5991 19.3059 3.93699 18.8177 3.44881C18.3296 2.96063 17.6674 2.68637 16.9771 2.68637ZM5.01692 14.6891C4.63827 14.6891 4.26813 14.5768 3.95329 14.3665C3.63846 14.1561 3.39307 13.8571 3.24817 13.5073C3.10327 13.1574 3.06536 12.7725 3.13923 12.4011C3.2131 12.0298 3.39543 11.6886 3.66318 11.4209C3.93092 11.1532 4.27205 10.9708 4.64342 10.8969C5.01479 10.8231 5.39973 10.861 5.74955 11.0059C6.09938 11.1508 6.39838 11.3962 6.60874 11.711C6.81911 12.0258 6.93139 12.396 6.93139 12.7746C6.93076 13.2822 6.72886 13.7688 6.36996 14.1277C6.01106 14.4866 5.52447 14.6885 5.01692 14.6891ZM9.83268 14.6891C9.45404 14.6891 9.08389 14.5768 8.76906 14.3665C8.45422 14.1561 8.20884 13.8571 8.06394 13.5073C7.91904 13.1574 7.88112 12.7725 7.95499 12.4011C8.02886 12.0298 8.2112 11.6886 8.47895 11.4209C8.74669 11.1532 9.08782 10.9708 9.45919 10.8969C9.83056 10.8231 10.2155 10.861 10.5653 11.0059C10.9151 11.1508 11.2141 11.3962 11.4245 11.711C11.6349 12.0258 11.7472 12.396 11.7472 12.7746C11.7465 13.2822 11.5446 13.7688 11.1857 14.1277C10.8268 14.4866 10.3402 14.6885 9.83268 14.6891ZM14.6484 14.6891C14.2698 14.6891 13.8997 14.5768 13.5848 14.3665C13.27 14.1561 13.0246 13.8571 12.8797 13.5073C12.7348 13.1574 12.6969 12.7725 12.7708 12.4011C12.8446 12.0298 13.027 11.6886 13.2947 11.4209C13.5625 11.1532 13.9036 10.9708 14.275 10.8969C14.6463 10.8231 15.0313 10.861 15.3811 11.0059C15.7309 11.1508 16.0299 11.3962 16.2403 11.711C16.4506 12.0258 16.5629 12.396 16.5629 12.7746C16.5623 13.2826 16.3601 13.7696 16.0007 14.1285C15.6413 14.4875 15.1541 14.6891 14.6461 14.6891H14.6484ZM18.1603 7.159H1.41988V5.28949C1.41988 4.97568 1.54454 4.67472 1.76644 4.45282C1.98834 4.23092 2.2893 4.10625 2.60312 4.10625H4.62882V5.02918C4.62882 5.21747 4.70361 5.39804 4.83675 5.53118C4.96989 5.66432 5.15047 5.73912 5.33876 5.73912C5.52704 5.73912 5.70762 5.66432 5.84076 5.53118C5.9739 5.39804 6.0487 5.21747 6.0487 5.02918V4.10625H13.709V5.02918C13.709 5.21747 13.7838 5.39804 13.9169 5.53118C14.05 5.66432 14.2306 5.73912 14.4189 5.73912C14.6072 5.73912 14.7878 5.66432 14.9209 5.53118C15.054 5.39804 15.1288 5.21747 15.1288 5.02918V4.10625H16.9771C17.2909 4.10625 17.5918 4.23092 17.8137 4.45282C18.0356 4.67472 18.1603 4.97568 18.1603 5.28949V7.159Z" fill="white"/>
</svg>
