<svg width="38" height="38" viewBox="0 0 38 38" fill="none" xmlns="http://www.w3.org/2000/svg">
<path fill-rule="evenodd" clip-rule="evenodd" d="M5.98969 18.9998C5.98794 17.0313 6.20767 15.0693 6.64799 13.1538C6.80886 12.4544 7.33768 11.942 8.05352 11.7921L10.8044 11.2161C11.3917 11.0931 11.842 10.7379 12.0905 10.2024L15.188 3.52463C15.6732 2.47892 15.0585 1.2748 13.9128 1.02799C12.4951 0.722265 11.0773 0.41611 9.65959 0.110381C7.7187 -0.308501 5.80833 0.485283 4.76769 2.14373C1.5647 7.24803 -0.0317817 13.1017 0.000479273 18.9998C-0.0317817 24.8979 1.5647 30.7515 4.76813 35.8563C5.80876 37.5147 7.71914 38.3085 9.66003 37.8896C11.0778 37.5839 12.4955 37.2777 13.9132 36.972C15.0585 36.7248 15.6732 35.5211 15.1884 34.4754L12.0909 27.7976C11.8429 27.2621 11.3921 26.9073 10.8049 26.7839L8.05396 26.2079C7.33811 26.058 6.80929 25.5456 6.64842 24.8462C6.20767 22.9303 5.98794 20.9682 5.98969 18.9998ZM14.2263 8.56232H34.7709C35.3215 8.56232 35.8411 8.69853 36.2954 8.9385L22.5326 17.9071C22.3613 18.019 22.1712 18.0745 21.9829 18.0745C21.7945 18.0745 21.6044 18.0186 21.4331 17.9071L12.2339 11.9121C12.6594 11.6115 13.0012 11.2033 13.2305 10.7093L14.2263 8.56232ZM37.2951 9.7562L25.7046 17.3093L37.4254 28.0717C37.7873 27.5606 38 26.9415 38 26.2745V11.7251C38.0004 10.9821 37.7358 10.2972 37.2951 9.7562ZM36.5295 28.9249C36.0229 29.2485 35.4187 29.4373 34.7709 29.4373H14.2263L13.2305 27.2903C12.819 26.403 12.0452 25.792 11.0725 25.5862L19.3292 18.0049L20.7439 18.9268C21.1258 19.1757 21.5539 19.3004 21.9829 19.3004C22.4118 19.3004 22.84 19.1761 23.2219 18.9268L24.637 18.0049L36.5295 28.9249ZM10.8271 12.4646L18.2615 17.3093L9.58592 25.2749L8.31553 25.0089C8.07706 24.9589 7.92273 24.8095 7.86911 24.5763C7.44841 22.7475 7.24133 20.8743 7.24133 18.9994C7.24133 17.1244 7.44884 15.2516 7.86911 13.4224C7.92273 13.1897 8.07706 13.0398 8.31553 12.9903L10.8271 12.4646Z" fill="black"/>
</svg>
