<svg width="14" height="19" viewBox="0 0 14 19" fill="none" xmlns="http://www.w3.org/2000/svg">
<path d="M1.02054 2.77521H4.90453V1.78442C4.90473 1.49679 5.02081 1.22098 5.22731 1.01753C5.4338 0.814078 5.71384 0.699599 6.00597 0.699219H7.99372C8.28584 0.699599 8.56588 0.814078 8.77238 1.01753C8.97888 1.22098 9.09496 1.49679 9.09515 1.78442V2.77521H12.9791C13.2499 2.77521 13.5096 2.88111 13.701 3.06962C13.8924 3.25812 14 3.51378 14 3.78036V4.96501C13.9999 5.21951 13.9017 5.4645 13.7253 5.65052C13.5489 5.83654 13.3074 5.94974 13.0495 5.96729V16.6215C13.049 17.1206 12.8476 17.5991 12.4893 17.9521C12.131 18.3052 11.6452 18.5039 11.1383 18.5047H2.86209C2.35523 18.5039 1.86939 18.3052 1.51112 17.9521C1.15285 17.5991 0.951385 17.1206 0.950904 16.6215V5.96836C0.692905 5.95099 0.451217 5.83786 0.274655 5.65183C0.0980949 5.46579 -0.000179291 5.22071 -0.000315666 4.96608V3.78144C-0.000459671 3.64935 0.0258389 3.51853 0.0770779 3.39646C0.128316 3.27438 0.20349 3.16345 0.2983 3.07C0.393109 2.97655 0.505695 2.90241 0.629622 2.85183C0.753551 2.80125 0.886388 2.77521 1.02054 2.77521ZM8.5118 1.78442C8.51171 1.64909 8.45712 1.51933 8.36 1.42357C8.26288 1.32781 8.13116 1.27388 7.99372 1.27359H6.00597C5.86852 1.27388 5.7368 1.32781 5.63969 1.42357C5.54257 1.51933 5.48798 1.64909 5.48788 1.78442V2.77521H8.5118V1.78442ZM1.53352 16.6215C1.53381 16.9683 1.67375 17.3008 1.92267 17.5462C2.17158 17.7916 2.50915 17.9297 2.86136 17.9304H11.1376C11.4898 17.9297 11.8274 17.7916 12.0763 17.5462C12.3252 17.3008 12.4651 16.9683 12.4654 16.6215V5.97123H1.53352V16.6215ZM0.583031 4.96608C0.583031 5.08033 0.629126 5.1899 0.711174 5.27069C0.793223 5.35148 0.904506 5.39686 1.02054 5.39686H12.9791C13.0952 5.39686 13.2065 5.35148 13.2885 5.27069C13.3706 5.1899 13.4167 5.08033 13.4167 4.96608V3.78144C13.4167 3.66719 13.3706 3.55762 13.2885 3.47684C13.2065 3.39605 13.0952 3.35066 12.9791 3.35066H1.02054C0.904506 3.35066 0.793223 3.39605 0.711174 3.47684C0.629126 3.55762 0.583031 3.66719 0.583031 3.78144V4.96608Z" fill="black"/>
<path d="M9.2884 16.1916C9.21105 16.1916 9.13686 16.1613 9.08216 16.1075C9.02746 16.0536 8.99673 15.9806 8.99673 15.9044V7.95906C8.99673 7.88289 9.02746 7.80985 9.08216 7.75599C9.13686 7.70213 9.21105 7.67188 9.2884 7.67188C9.36576 7.67188 9.43995 7.70213 9.49465 7.75599C9.54935 7.80985 9.58008 7.88289 9.58008 7.95906V15.9044C9.58008 15.9806 9.54935 16.0536 9.49465 16.1075C9.43995 16.1613 9.36576 16.1916 9.2884 16.1916Z" fill="black"/>
<path d="M4.83528 16.1916C4.75792 16.1916 4.68373 16.1613 4.62904 16.1075C4.57434 16.0536 4.54361 15.9806 4.54361 15.9044V7.95906C4.54361 7.88289 4.57434 7.80985 4.62904 7.75599C4.68373 7.70213 4.75792 7.67188 4.83528 7.67188C4.91264 7.67188 4.98682 7.70213 5.04152 7.75599C5.09622 7.80985 5.12695 7.88289 5.12695 7.95906V15.9044C5.12695 15.9806 5.09622 16.0536 5.04152 16.1075C4.98682 16.1613 4.91264 16.1916 4.83528 16.1916Z" fill="black"/>
</svg>
