<svg width="16" height="16" viewBox="0 0 16 16" fill="none" xmlns="http://www.w3.org/2000/svg">
<path d="M8.08893 11.2048C8.03144 11.2623 7.97395 11.3006 7.8972 11.339C7.82059 11.3774 7.74385 11.3774 7.66724 11.3774C7.59063 11.3774 7.51389 11.3583 7.43728 11.339C7.36067 11.3006 7.30305 11.2624 7.24556 11.2048L3.04801 7.00723C2.81805 6.77726 2.81805 6.39382 3.04801 6.16385C3.27798 5.93388 3.66142 5.93389 3.89139 6.16385L7.07312 9.34558V0.586326C7.07312 0.260506 7.34145 -0.0078125 7.66726 -0.0078125C7.99307 -0.0078125 8.2614 0.260517 8.2614 0.586326V9.32642L11.4431 6.16382C11.6731 5.93385 12.0565 5.93385 12.2865 6.16382C12.5165 6.39378 12.5165 6.77722 12.2865 7.00719L8.08893 11.2048Z" fill="white"/>
<path d="M0.594665 10.1875C0.920485 10.1875 1.1888 10.4558 1.1888 10.7816C1.1888 12.6025 2.66469 14.0783 4.48551 14.0783H10.8297C12.6506 14.0783 14.1264 12.6025 14.1264 10.7816C14.1264 10.4558 14.3948 10.1875 14.7206 10.1875C15.0465 10.1875 15.334 10.4558 15.334 10.7816C15.334 13.2541 13.3214 15.2859 10.8298 15.2859H4.48554C2.01308 15.2859 0.000492096 13.2733 0.000492096 10.7816C0.000492096 10.4558 0.268855 10.1875 0.594665 10.1875Z" fill="white"/>
</svg>
