<svg width="44" height="52" viewBox="0 0 44 52" fill="none" xmlns="http://www.w3.org/2000/svg">
<path d="M6.73159 22.8674C6.86885 22.8671 7.00274 22.8263 7.1153 22.7504L31.5784 6.3054L31.1678 8.4894C31.1523 8.57349 31.1541 8.6597 31.1731 8.7431C31.1921 8.82651 31.228 8.90549 31.2786 8.97551C31.3292 9.04553 31.3937 9.10524 31.4682 9.1512C31.5428 9.19717 31.626 9.2285 31.7131 9.2434H31.8342C31.9946 9.24566 32.1505 9.19254 32.2739 9.09364C32.3974 8.99473 32.4801 8.85652 32.5074 8.7039L33.1806 4.9794C33.1978 4.89572 33.1978 4.80958 33.1806 4.7259C33.1631 4.64226 33.1288 4.56275 33.0796 4.4919C33.0282 4.42067 32.9616 4.36085 32.8844 4.3164C32.8209 4.27724 32.7499 4.25072 32.6757 4.2384L28.8184 3.5884C28.6435 3.55801 28.4633 3.59563 28.317 3.69304C28.1707 3.79045 28.0703 3.93976 28.0375 4.1084C28.021 4.1925 28.0218 4.27893 28.0399 4.36272C28.058 4.44651 28.0931 4.52602 28.1432 4.59669C28.1932 4.66735 28.2572 4.72777 28.3315 4.77449C28.4058 4.8212 28.4889 4.85329 28.5761 4.8689L30.8379 5.2589L6.33441 21.6844C6.21607 21.7641 6.12739 21.8784 6.08143 22.0105C6.03548 22.1426 6.0347 22.2854 6.07919 22.418C6.12369 22.5505 6.21111 22.6657 6.32858 22.7466C6.44604 22.8276 6.58732 22.8699 6.73159 22.8674Z" fill="white"/>
<path d="M39.3807 36.7469H37.0246V12.6969C37.0246 12.5245 36.9536 12.3592 36.8274 12.2373C36.7011 12.1154 36.5299 12.0469 36.3514 12.0469H29.6196C29.4411 12.0469 29.2699 12.1154 29.1436 12.2373C29.0174 12.3592 28.9465 12.5245 28.9465 12.6969V36.7469H26.2538V20.4969C26.2538 20.3245 26.1829 20.1592 26.0566 20.0373C25.9304 19.9154 25.7591 19.8469 25.5806 19.8469H18.8489C18.6703 19.8469 18.4991 19.9154 18.3729 20.0373C18.2466 20.1592 18.1757 20.3245 18.1757 20.4969V36.7469H15.483V26.9969C15.483 26.8245 15.4121 26.6592 15.2858 26.5373C15.1596 26.4154 14.9884 26.3469 14.8098 26.3469H8.0781C7.89956 26.3469 7.72834 26.4154 7.60209 26.5373C7.47585 26.6592 7.40492 26.8245 7.40492 26.9969V36.7469H3.70247C3.52393 36.7469 3.35271 36.8154 3.22646 36.9373C3.10022 37.0592 3.0293 37.2245 3.0293 37.3969C3.0293 37.5693 3.10022 37.7346 3.22646 37.8565C3.35271 37.9784 3.52393 38.0469 3.70247 38.0469H39.3807C39.5592 38.0469 39.7304 37.9784 39.8567 37.8565C39.9829 37.7346 40.0538 37.5693 40.0538 37.3969C40.0538 37.2245 39.9829 37.0592 39.8567 36.9373C39.7304 36.8154 39.5592 36.7469 39.3807 36.7469ZM8.75127 36.7469V27.6469H14.1367V36.7469H8.75127ZM19.522 36.7469V21.1469H24.9074V36.7469H19.522ZM30.2928 36.7469V13.3469H35.6782V36.7469H30.2928Z" fill="white"/>
</svg>
