<svg width="42" height="52" viewBox="0 0 42 52" fill="none" xmlns="http://www.w3.org/2000/svg">
<path d="M6.56251 22.8674C6.69632 22.8671 6.82684 22.8263 6.93657 22.7504L30.7847 6.3054L30.3844 8.4894C30.3693 8.57349 30.371 8.6597 30.3896 8.7431C30.4081 8.82651 30.443 8.90549 30.4924 8.97551C30.5418 9.04553 30.6046 9.10524 30.6773 9.1512C30.7499 9.19717 30.831 9.2285 30.9159 9.2434H31.0341C31.1904 9.24566 31.3424 9.19254 31.4627 9.09364C31.583 8.99473 31.6638 8.85652 31.6903 8.7039L32.3466 4.9794C32.3634 4.89572 32.3634 4.80958 32.3466 4.7259C32.3296 4.64226 32.2961 4.56275 32.2481 4.4919C32.198 4.42067 32.1331 4.36085 32.0578 4.3164C31.9959 4.27724 31.9268 4.25072 31.8544 4.2384L28.0941 3.5884C27.9236 3.55801 27.7479 3.59563 27.6053 3.69304C27.4627 3.79045 27.3647 3.93976 27.3328 4.1084C27.3167 4.1925 27.3175 4.27893 27.3351 4.36272C27.3528 4.44651 27.387 4.52602 27.4358 4.59669C27.4846 4.66735 27.547 4.72777 27.6194 4.77449C27.6918 4.8212 27.7728 4.85329 27.8578 4.8689L30.0628 5.2589L6.17532 21.6844C6.05995 21.7641 5.97349 21.8784 5.9287 22.0105C5.8839 22.1426 5.88314 22.2854 5.92651 22.418C5.96989 22.5505 6.05512 22.6657 6.16963 22.7466C6.28413 22.8276 6.42186 22.8699 6.56251 22.8674Z" fill="white"/>
<path d="M38.3906 36.7469H36.0938V12.6969C36.0938 12.5245 36.0246 12.3592 35.9015 12.2373C35.7785 12.1154 35.6115 12.0469 35.4375 12.0469H28.875C28.701 12.0469 28.534 12.1154 28.411 12.2373C28.2879 12.3592 28.2188 12.5245 28.2188 12.6969V36.7469H25.5938V20.4969C25.5938 20.3245 25.5246 20.1592 25.4015 20.0373C25.2785 19.9154 25.1115 19.8469 24.9375 19.8469H18.375C18.201 19.8469 18.034 19.9154 17.911 20.0373C17.7879 20.1592 17.7188 20.3245 17.7188 20.4969V36.7469H15.0938V26.9969C15.0938 26.8245 15.0246 26.6592 14.9015 26.5373C14.7785 26.4154 14.6115 26.3469 14.4375 26.3469H7.875C7.70095 26.3469 7.53403 26.4154 7.41096 26.5373C7.28789 26.6592 7.21875 26.8245 7.21875 26.9969V36.7469H3.60938C3.43533 36.7469 3.26841 36.8154 3.14534 36.9373C3.02227 37.0592 2.95312 37.2245 2.95312 37.3969C2.95312 37.5693 3.02227 37.7346 3.14534 37.8565C3.26841 37.9784 3.43533 38.0469 3.60938 38.0469H38.3906C38.5647 38.0469 38.7316 37.9784 38.8547 37.8565C38.9777 37.7346 39.0469 37.5693 39.0469 37.3969C39.0469 37.2245 38.9777 37.0592 38.8547 36.9373C38.7316 36.8154 38.5647 36.7469 38.3906 36.7469ZM8.53125 36.7469V27.6469H13.7812V36.7469H8.53125ZM19.0312 36.7469V21.1469H24.2812V36.7469H19.0312ZM29.5312 36.7469V13.3469H34.7812V36.7469H29.5312Z" fill="white"/>
</svg>
