<svg width="33" height="29" viewBox="0 0 33 29" fill="none" xmlns="http://www.w3.org/2000/svg">
<path d="M23.9993 7.09375H2.91891C1.30942 7.09375 0 8.562 0 10.3667V24.7606C0 26.5653 1.30942 28.0335 2.91891 28.0335H23.9993C24.1131 28.0335 24.2249 28.0244 24.3353 28.0103C24.3834 28.024 24.4325 28.0335 24.4815 28.0335C24.6085 28.0335 24.7343 27.9854 24.8388 27.8941C26.0402 27.4886 26.9182 26.2377 26.9182 24.7606V10.3667C26.9182 8.562 25.6091 7.09375 23.9993 7.09375ZM2.9192 8.40294H23.9996C24.9655 8.40294 25.7509 9.28369 25.7509 10.3667V18.6918L22.2535 15.5468C22.0442 15.3586 21.7477 15.355 21.5343 15.537L17.2411 19.2073L10.3294 12.247C10.1062 12.0222 9.76785 12.0235 9.5463 12.2503L1.16786 20.8078V10.367C1.16786 9.28402 1.95334 8.40294 2.9192 8.40294ZM1.16786 24.7606V22.5788L9.9424 13.6168L22.9584 26.7244H2.9192C1.95334 26.7244 1.16786 25.8436 1.16786 24.7606ZM24.5895 26.6075L18.1253 20.0979L21.879 16.8884L25.7506 20.3705V24.7606C25.7506 25.6112 25.2652 26.3349 24.5895 26.6075Z" fill="#9C9C9C"/>
<path d="M30.0584 0H8.79294C7.18345 0 5.87402 1.38839 5.87402 3.09525V5.5359C5.87402 5.89723 6.13556 6.19049 6.45781 6.19049C6.78005 6.19049 7.04159 5.89723 7.04159 5.5359V3.09525C7.04159 2.11041 7.82707 1.30919 8.79294 1.30919H30.0584C31.0243 1.30919 31.8097 2.18994 31.8097 3.27297V18.8091C31.8097 19.8921 31.1366 20.7729 30.3094 20.7729H28.2253C27.9031 20.7729 27.6415 21.0661 27.6415 21.4275C27.6415 21.7888 27.9031 22.0821 28.2253 22.0821H30.3094C31.7805 22.0821 32.9773 20.6138 32.9773 18.8091V3.27297C32.9773 1.46825 31.6679 0 30.0584 0Z" fill="#9C9C9C"/>
<path d="M17.2114 16.3924C18.7544 16.3924 20.0098 14.9847 20.0098 13.2547C20.0098 11.5246 18.7544 10.1172 17.2114 10.1172C15.6685 10.1172 14.4131 11.5246 14.4131 13.2547C14.4131 14.9847 15.6682 16.3924 17.2114 16.3924ZM17.2114 11.4264C18.1108 11.4264 18.8422 12.2466 18.8422 13.2547C18.8422 14.2631 18.1108 15.0833 17.2114 15.0833C16.3121 15.0833 15.5807 14.2631 15.5807 13.2547C15.5807 12.2466 16.3121 11.4264 17.2114 11.4264Z" fill="#9C9C9C"/>
</svg>
