<svg width="12" height="10" viewBox="0 0 12 10" fill="none" xmlns="http://www.w3.org/2000/svg">
<path d="M0.428661 1.99921H6.35561C6.44703 2.32761 6.64348 2.61704 6.91493 2.82325C7.18638 3.02945 7.51789 3.14109 7.85878 3.14109C8.19967 3.14109 8.53119 3.02945 8.80264 2.82325C9.07409 2.61704 9.27054 2.32761 9.36195 1.99921H10.7165C10.8302 1.99921 10.9392 1.95404 11.0196 1.87365C11.1 1.79326 11.1452 1.68423 11.1452 1.57054C11.1452 1.45686 11.1 1.34783 11.0196 1.26744C10.9392 1.18705 10.8302 1.14188 10.7165 1.14188H9.36195C9.27054 0.81348 9.07409 0.524051 8.80264 0.317844C8.53119 0.111637 8.19967 0 7.85878 0C7.51789 0 7.18638 0.111637 6.91493 0.317844C6.64348 0.524051 6.44703 0.81348 6.35561 1.14188H0.428661C0.314973 1.14188 0.205941 1.18705 0.125552 1.26744C0.0451623 1.34783 0 1.45686 0 1.57054C0 1.68423 0.0451623 1.79326 0.125552 1.87365C0.205941 1.95404 0.314973 1.99921 0.428661 1.99921ZM7.85878 0.85611C8.00009 0.85611 8.13822 0.898011 8.2557 0.976514C8.37319 1.05502 8.46476 1.1666 8.51884 1.29714C8.57291 1.42769 8.58706 1.57134 8.55949 1.70992C8.53192 1.84851 8.46388 1.97581 8.36397 2.07573C8.26405 2.17564 8.13675 2.24369 7.99816 2.27125C7.85958 2.29882 7.71593 2.28467 7.58538 2.2306C7.45484 2.17652 7.34326 2.08495 7.26475 1.96746C7.18625 1.84998 7.14435 1.71185 7.14435 1.57054C7.14435 1.38107 7.21962 1.19935 7.3536 1.06536C7.48758 0.931381 7.6693 0.85611 7.85878 0.85611Z" fill="black"/>
<path d="M10.7165 4.57157H4.78957C4.69815 4.24317 4.5017 3.95374 4.23025 3.74753C3.9588 3.54132 3.62729 3.42969 3.2864 3.42969C2.94551 3.42969 2.614 3.54132 2.34255 3.74753C2.0711 3.95374 1.87465 4.24317 1.78323 4.57157H0.428661C0.314973 4.57157 0.205941 4.61673 0.125552 4.69712C0.0451623 4.77751 0 4.88654 0 5.00023C0 5.11392 0.0451623 5.22295 0.125552 5.30334C0.205941 5.38373 0.314973 5.42889 0.428661 5.42889H1.78323C1.87465 5.7573 2.0711 6.04673 2.34255 6.25293C2.614 6.45914 2.94551 6.57078 3.2864 6.57078C3.62729 6.57078 3.9588 6.45914 4.23025 6.25293C4.5017 6.04673 4.69815 5.7573 4.78957 5.42889H10.7165C10.8302 5.42889 10.9392 5.38373 11.0196 5.30334C11.1 5.22295 11.1452 5.11392 11.1452 5.00023C11.1452 4.88654 11.1 4.77751 11.0196 4.69712C10.9392 4.61673 10.8302 4.57157 10.7165 4.57157ZM3.2864 5.71467C3.1451 5.71467 3.00697 5.67277 2.88948 5.59426C2.77199 5.51576 2.68042 5.40418 2.62635 5.27364C2.57227 5.14309 2.55813 4.99944 2.58569 4.86085C2.61326 4.72227 2.6813 4.59497 2.78122 4.49505C2.88113 4.39514 3.00843 4.32709 3.14702 4.29953C3.28561 4.27196 3.42926 4.28611 3.5598 4.34018C3.69035 4.39425 3.80193 4.48583 3.88043 4.60331C3.95893 4.7208 4.00084 4.85893 4.00084 5.00023C4.00084 5.18971 3.92556 5.37143 3.79158 5.50541C3.6576 5.6394 3.47588 5.71467 3.2864 5.71467Z" fill="black"/>
<path d="M10.7165 8.00126H9.36195C9.27054 7.67286 9.07409 7.38343 8.80264 7.17722C8.53119 6.97101 8.19967 6.85938 7.85878 6.85938C7.51789 6.85938 7.18638 6.97101 6.91493 7.17722C6.64348 7.38343 6.44703 7.67286 6.35561 8.00126H0.428661C0.314973 8.00126 0.205941 8.04642 0.125552 8.12681C0.0451623 8.2072 0 8.31623 0 8.42992C0 8.54361 0.0451623 8.65264 0.125552 8.73303C0.205941 8.81342 0.314973 8.85858 0.428661 8.85858H6.35561C6.44703 9.18698 6.64348 9.47641 6.91493 9.68262C7.18638 9.88883 7.51789 10.0005 7.85878 10.0005C8.19967 10.0005 8.53119 9.88883 8.80264 9.68262C9.07409 9.47641 9.27054 9.18698 9.36195 8.85858H10.7165C10.8302 8.85858 10.9392 8.81342 11.0196 8.73303C11.1 8.65264 11.1452 8.54361 11.1452 8.42992C11.1452 8.31623 11.1 8.2072 11.0196 8.12681C10.9392 8.04642 10.8302 8.00126 10.7165 8.00126ZM7.85878 9.14436C7.71748 9.14436 7.57935 9.10245 7.46187 9.02395C7.34438 8.94545 7.25281 8.83387 7.19873 8.70332C7.14466 8.57278 7.13051 8.42913 7.15808 8.29054C7.18564 8.15195 7.25369 8.02465 7.3536 7.92474C7.45352 7.82482 7.58082 7.75678 7.7194 7.72921C7.85799 7.70165 8.00164 7.71579 8.13219 7.76987C8.26273 7.82394 8.37431 7.91551 8.45282 8.033C8.53132 8.15049 8.57322 8.28862 8.57322 8.42992C8.57322 8.6194 8.49795 8.80112 8.36397 8.9351C8.22998 9.06908 8.04826 9.14436 7.85878 9.14436Z" fill="black"/>
</svg>
