<svg width="42" height="28" viewBox="0 0 42 28" fill="none" xmlns="http://www.w3.org/2000/svg">
<rect width="1920" height="1027" transform="translate(-823 -359)" fill="white"/>
<rect x="-15.5" y="-34.5" width="304" height="99" rx="8.5" fill="white" stroke="#D5D9D9"/>
<path d="M25.532 17.5635C25.444 17.4315 25.312 17.3435 25.18 17.3435H22.54C22.408 16.9475 22.144 16.6395 21.792 16.4635V15.9795C21.792 15.5395 21.44 15.1875 21 15.1875C20.56 15.1875 20.208 15.5395 20.208 15.9795V16.4635C19.856 16.6835 19.592 16.9915 19.46 17.3435H16.82C16.688 17.3435 16.556 17.4315 16.468 17.5635L14.532 21.4355C14.488 21.5675 14.444 21.6995 14.488 21.7875C14.84 22.9755 15.764 23.7675 16.864 23.7675C17.964 23.7675 18.888 22.9755 19.24 21.7875C19.284 21.6555 19.24 21.5235 19.196 21.4355L17.656 18.3995H19.46C19.592 18.7515 19.856 19.0595 20.208 19.2795V23.7675C20.208 24.7355 19.504 25.5275 18.536 25.6595L17.04 25.8355C16.864 25.8355 16.732 26.0115 16.732 26.1435V26.8915C16.732 27.0675 16.864 27.1995 17.04 27.1995H24.96C25.136 27.1995 25.268 27.0675 25.268 26.8915V26.1435C25.268 25.9675 25.136 25.8355 24.96 25.8355L23.464 25.6595C22.496 25.5715 21.792 24.7355 21.792 23.7675V19.2795C22.144 19.1035 22.408 18.7955 22.54 18.3995H24.344L22.848 21.3915C22.804 21.5235 22.76 21.6555 22.804 21.7435C23.156 22.9315 24.08 23.7235 25.18 23.7235C26.28 23.7235 27.204 22.9315 27.556 21.7435C27.6 21.6115 27.556 21.4795 27.512 21.3915L25.532 17.5635ZM18.096 21.2595H15.588L16.864 18.7515L18.096 21.2595ZM23.904 21.2595L25.18 18.7515L26.456 21.2595H23.904Z" fill="black"/>
<path d="M41.636 21.1288L38.028 18.2688C37.808 18.0928 37.5 18.0488 37.28 18.1808C37.016 18.3128 36.884 18.5768 36.884 18.8408V20.8648H31.604C31.428 18.5768 30.504 16.4648 29.096 14.8368L32.792 11.1408L34.2 12.5488C34.332 12.6808 34.508 12.7688 34.728 12.7688C34.816 12.7688 34.904 12.7688 34.948 12.7248C35.212 12.6368 35.388 12.4168 35.432 12.1088L36.004 7.53278C36.048 7.31278 35.96 7.09278 35.784 6.91678C35.608 6.74078 35.388 6.69678 35.168 6.69678L30.592 7.26878C30.328 7.31278 30.064 7.48878 29.976 7.75278C29.888 8.01678 29.976 8.32478 30.152 8.50078L31.56 9.90878L27.864 13.6048C26.192 12.1968 24.124 11.2728 21.836 11.0968V5.86078H23.86C24.124 5.86078 24.388 5.68478 24.52 5.46478C24.652 5.20078 24.608 4.89278 24.432 4.67278L21.572 1.06478C21.308 0.712781 20.692 0.712781 20.428 1.06478L17.568 4.67278C17.392 4.89278 17.392 5.20078 17.48 5.46478C17.612 5.72878 17.876 5.86078 18.14 5.86078H20.164V11.0968C17.876 11.2728 15.764 12.1968 14.136 13.6048L10.44 9.90878L11.848 8.50078C12.024 8.32478 12.112 8.01678 12.024 7.75278C11.936 7.48878 11.716 7.31278 11.408 7.26878L6.83199 6.69678C6.61199 6.65278 6.39199 6.74078 6.21599 6.91678C6.08399 7.09278 5.99599 7.31278 5.99599 7.53278L6.56799 12.1088C6.61199 12.3728 6.78799 12.6368 7.05199 12.7248C7.13999 12.7688 7.22799 12.7688 7.27199 12.7688C7.44799 12.7688 7.66799 12.6808 7.79999 12.5488L9.20799 11.1408L12.904 14.8368C11.496 16.4648 10.572 18.5768 10.396 20.8648H5.20399V18.8408C5.20399 18.5768 5.02799 18.3128 4.80799 18.1808C4.54399 18.0488 4.27999 18.0928 4.05999 18.2688L0.451988 21.1288C0.275988 21.2608 0.187988 21.4808 0.187988 21.7008C0.187988 21.9208 0.275988 22.1408 0.451988 22.2728L4.05999 25.1328C4.19199 25.2208 4.36799 25.2648 4.49999 25.2648C4.58799 25.2648 4.71999 25.2648 4.80799 25.1768C5.07199 25.0448 5.20399 24.7808 5.20399 24.5168V22.4928H11.672C11.892 22.4928 12.068 22.3168 12.068 22.0968C12.068 21.9648 12.068 21.8328 12.068 21.7008C12.068 16.7728 16.072 12.7248 21.044 12.7248C25.972 12.7248 30.02 16.7288 30.02 21.7008C30.02 21.8328 30.02 21.9648 30.02 22.0968C30.02 22.3168 30.196 22.4928 30.416 22.4928L36.884 22.5368V24.5608C36.884 24.8248 37.06 25.0888 37.28 25.2208C37.368 25.2648 37.5 25.3088 37.588 25.3088C37.764 25.3088 37.896 25.2648 38.028 25.1328L41.636 22.2728C41.812 22.1408 41.9 21.9208 41.9 21.7008C41.9 21.4808 41.812 21.2608 41.636 21.1288Z" fill="black"/>
</svg>
