<svg width="41" height="41" viewBox="0 0 41 41" fill="none" xmlns="http://www.w3.org/2000/svg">
<path fill-rule="evenodd" clip-rule="evenodd" d="M8.63595 20.9537C9.39842 20.9547 10.1435 21.1827 10.7769 21.6088C11.4104 22.035 11.9039 22.6401 12.195 23.3478C12.486 24.0555 12.5617 24.834 12.4123 25.5849C12.2629 26.3357 11.8952 27.0252 11.3557 27.5663C10.8162 28.1074 10.1291 28.4757 9.38122 28.6247C8.63333 28.7737 7.85823 28.6967 7.1539 28.4034C6.44957 28.1102 5.84761 27.6138 5.42411 26.9771C5.00062 26.3404 4.77458 25.5919 4.77458 24.8262C4.7745 24.3172 4.87435 23.8132 5.06844 23.343C5.26252 22.8727 5.54703 22.4456 5.90567 22.0859C6.26432 21.7262 6.69007 21.4411 7.15856 21.2468C7.62705 21.0525 8.12909 20.9529 8.63595 20.9537ZM23.1939 10.1337L24.243 9.27089C24.3013 9.22275 24.3687 9.18671 24.441 9.16483C24.5133 9.14296 24.5893 9.13569 24.6644 9.14344C24.7396 9.15119 24.8124 9.17381 24.8788 9.20999C24.9452 9.24618 25.0038 9.29521 25.0513 9.35426C25.1479 9.47298 25.1939 9.62521 25.1793 9.77782C25.1647 9.93044 25.0907 10.0711 24.9734 10.1692L23.1939 11.6292V13.4614H18.763V9.01819H23.1933L23.1939 10.1337ZM23.1939 11.6292V10.1337L21.8882 11.1994L21.3283 10.3915C21.2362 10.2768 21.1043 10.2015 20.9591 10.1806C20.8139 10.1598 20.6663 10.1951 20.546 10.2793C20.4256 10.3636 20.3416 10.4905 20.3109 10.6345C20.2801 10.7785 20.3049 10.9289 20.3803 11.0553L21.3051 12.3743C21.3483 12.4365 21.4033 12.4896 21.4669 12.5304C21.5305 12.5712 21.6016 12.5991 21.6759 12.6124C21.7503 12.6256 21.8265 12.624 21.9002 12.6077C21.974 12.5914 22.0438 12.5606 22.1057 12.5171C22.1134 12.5087 22.1289 12.4997 22.1366 12.4913L23.1939 11.6292ZM27.3906 13.1117C27.237 13.1117 27.0897 13.0504 26.9811 12.9414C26.8724 12.8323 26.8114 12.6843 26.8114 12.5301C26.8114 12.3758 26.8724 12.2279 26.9811 12.1188C27.0897 12.0097 27.237 11.9484 27.3906 11.9484H38.2179C38.3715 11.9484 38.5188 12.0097 38.6274 12.1188C38.7361 12.2279 38.7971 12.3758 38.7971 12.5301C38.7971 12.6843 38.7361 12.8323 38.6274 12.9414C38.5188 13.0504 38.3715 13.1117 38.2179 13.1117H27.3906ZM27.3906 10.5266C27.237 10.5266 27.0897 10.4653 26.9811 10.3562C26.8724 10.2472 26.8114 10.0992 26.8114 9.94496C26.8114 9.79069 26.8724 9.64275 26.9811 9.53367C27.0897 9.42459 27.237 9.3633 27.3906 9.3633H32.2566C32.4102 9.3633 32.5575 9.42459 32.6661 9.53367C32.7748 9.64275 32.8358 9.79069 32.8358 9.94496C32.8358 10.0992 32.7748 10.2472 32.6661 10.3562C32.5575 10.4653 32.4102 10.5266 32.2566 10.5266H27.3906ZM27.3906 4.08966C27.237 4.08966 27.0897 4.02838 26.9811 3.9193C26.8724 3.81022 26.8114 3.66227 26.8114 3.50801C26.8114 3.35374 26.8724 3.2058 26.9811 3.09672C27.0897 2.98764 27.237 2.92636 27.3906 2.92636H38.2179C38.3715 2.92636 38.5188 2.98764 38.6274 3.09672C38.7361 3.2058 38.7971 3.35374 38.7971 3.50801C38.7971 3.66227 38.7361 3.81022 38.6274 3.9193C38.5188 4.02838 38.3715 4.08966 38.2179 4.08966H27.3906ZM27.3906 1.50454C27.237 1.50454 27.0897 1.44326 26.9811 1.33418C26.8724 1.2251 26.8114 1.07715 26.8114 0.922887C26.8114 0.768624 26.8724 0.620678 26.9811 0.511597C27.0897 0.402516 27.237 0.341236 27.3906 0.341236H32.2566C32.4102 0.341236 32.5575 0.402516 32.6661 0.511597C32.7748 0.620678 32.8358 0.768624 32.8358 0.922887C32.8358 1.07715 32.7748 1.2251 32.6661 1.33418C32.5575 1.44326 32.4102 1.50454 32.2566 1.50454H27.3906ZM18.763 0H23.1933V4.44253H18.763V0ZM24.7945 27.5315L25.292 27.0281C25.3287 26.9912 25.3722 26.9619 25.4202 26.9419C25.4682 26.9219 25.5196 26.9116 25.5716 26.9116C25.6235 26.9116 25.675 26.9219 25.7229 26.9419C25.7709 26.9619 25.8145 26.9912 25.8512 27.0281L27.3359 28.5145C27.4104 28.5896 27.4522 28.6913 27.4522 28.7973C27.4522 28.9032 27.4104 29.0049 27.3359 29.08L26.8307 29.5828C27.2666 30.2616 27.5772 31.0135 27.7478 31.8028H28.4557C28.5616 31.8029 28.6633 31.8448 28.7388 31.9193C28.8144 31.9939 28.8578 32.0952 28.8599 32.2015V34.3026C28.858 34.4091 28.8147 34.5107 28.7391 34.5855C28.6635 34.6603 28.5618 34.7023 28.4557 34.7026H27.7478C27.5773 35.4915 27.2666 36.2431 26.8307 36.9213L27.3359 37.4248C27.4104 37.4999 27.4522 37.6015 27.4522 37.7075C27.4522 37.8135 27.4104 37.9152 27.3359 37.9903L25.8512 39.4767C25.8145 39.5136 25.7709 39.5429 25.7229 39.5629C25.675 39.5829 25.6235 39.5932 25.5716 39.5932C25.5196 39.5932 25.4682 39.5829 25.4202 39.5629C25.3722 39.5429 25.3287 39.5136 25.292 39.4767L24.7945 38.9733C24.1165 39.4086 23.3666 39.7189 22.58 39.8897V40.6006C22.5798 40.7062 22.538 40.8075 22.4638 40.8824C22.3895 40.9572 22.2888 40.9995 22.1836 41H20.0926C19.9874 40.9995 19.8867 40.9572 19.8124 40.8824C19.7381 40.8075 19.6964 40.7062 19.6962 40.6006V39.8897C18.9093 39.7179 18.1592 39.4067 17.4811 38.9707L16.9836 39.4741C16.9469 39.511 16.9033 39.5403 16.8553 39.5603C16.8073 39.5803 16.7559 39.5906 16.704 39.5906C16.652 39.5906 16.6006 39.5803 16.5526 39.5603C16.5046 39.5403 16.461 39.511 16.4243 39.4741L14.9396 37.9877C14.8652 37.9126 14.8233 37.8109 14.8233 37.7049C14.8233 37.599 14.8652 37.4973 14.9396 37.4222L15.4448 36.9187C15.0088 36.2401 14.6981 35.4881 14.5278 34.6988H13.8198C13.7147 34.6984 13.614 34.6563 13.5397 34.5816C13.4654 34.5068 13.4236 34.4056 13.4234 34.3V32.199C13.4237 32.0934 13.4656 31.9923 13.5399 31.9176C13.6141 31.8429 13.7147 31.8007 13.8198 31.8002H14.5278C14.6982 31.0109 15.0089 30.2589 15.4448 29.5802L14.9396 29.0774C14.8652 29.0023 14.8233 28.9007 14.8233 28.7947C14.8233 28.6887 14.8652 28.587 14.9396 28.5119L16.4243 27.0255C16.461 26.9886 16.5046 26.9593 16.5526 26.9393C16.6006 26.9193 16.652 26.909 16.704 26.909C16.7559 26.909 16.8073 26.9193 16.8553 26.9393C16.9033 26.9593 16.9469 26.9886 16.9836 27.0255L17.4811 27.5289C18.159 27.0924 18.9092 26.781 19.6962 26.6093V25.8984C19.6964 25.7927 19.7381 25.6913 19.8124 25.6164C19.8866 25.5414 19.9874 25.499 20.0926 25.4983H22.1836C22.2888 25.499 22.3896 25.5414 22.4638 25.6164C22.5381 25.6913 22.5798 25.7927 22.58 25.8984V26.6093C23.367 26.781 24.1171 27.0924 24.7951 27.5289L24.7945 27.5315ZM21.1416 29.0826C20.3203 29.0822 19.5173 29.3264 18.8342 29.7844C18.1511 30.2423 17.6186 30.8934 17.3041 31.6553C16.9895 32.4172 16.907 33.2557 17.067 34.0647C17.227 34.8737 17.6223 35.6169 18.2029 36.2002C18.7836 36.7836 19.5234 37.1809 20.3289 37.3419C21.1344 37.503 21.9694 37.4205 22.7283 37.105C23.4871 36.7894 24.1357 36.255 24.592 35.5692C25.0484 34.8834 25.292 34.0772 25.292 33.2524C25.2918 32.1473 24.8549 31.0875 24.0772 30.3057C23.2995 29.5239 22.2446 29.084 21.1442 29.0826H21.1416ZM2.90825 4.13038H11.6285C12.3973 4.13345 13.1336 4.4418 13.6768 4.98812C14.22 5.53444 14.5259 6.27437 14.5278 7.04639V13.6973C14.5259 14.4693 14.22 15.2092 13.6768 15.7555C13.1336 16.3018 12.3973 16.6102 11.6285 16.6133H8.57417L8.44932 16.8278L7.25294 18.9102L6.05591 16.8278L5.9317 16.6133H2.90697C2.13697 16.6119 1.39884 16.3043 0.854067 15.7579C0.309292 15.2114 0.00221096 14.4705 0 13.6973V7.04639C0.00221096 6.27314 0.309292 5.53224 0.854067 4.98577C1.39884 4.4393 2.13697 4.13174 2.90697 4.13038H2.90825ZM11.7527 12.2005H5.90017C5.74655 12.2005 5.59923 12.2618 5.49061 12.3708C5.38199 12.4799 5.32096 12.6279 5.32096 12.7821C5.32096 12.9364 5.38199 13.0843 5.49061 13.1934C5.59923 13.3025 5.74655 13.3638 5.90017 13.3638H11.7527C11.8288 13.3638 11.9041 13.3487 11.9744 13.3195C12.0446 13.2903 12.1085 13.2474 12.1623 13.1934C12.2161 13.1394 12.2587 13.0753 12.2878 13.0047C12.3169 12.9341 12.3319 12.8585 12.3319 12.7821C12.3319 12.7057 12.3169 12.6301 12.2878 12.5595C12.2587 12.489 12.2161 12.4248 12.1623 12.3708C12.1085 12.3168 12.0446 12.274 11.9744 12.2447C11.9041 12.2155 11.8288 12.2005 11.7527 12.2005ZM11.7527 10.3469H3.1335C2.97988 10.3469 2.83256 10.4082 2.72394 10.5173C2.61532 10.6264 2.55429 10.7743 2.55429 10.9286C2.55429 11.0829 2.61532 11.2308 2.72394 11.3399C2.83256 11.449 2.97988 11.5102 3.1335 11.5102H11.7527C11.9063 11.5102 12.0537 11.449 12.1623 11.3399C12.2709 11.2308 12.3319 11.0829 12.3319 10.9286C12.3319 10.7743 12.2709 10.6264 12.1623 10.5173C12.0537 10.4082 11.9063 10.3469 11.7527 10.3469ZM11.7527 8.49406H8.37209C8.21847 8.49406 8.07115 8.55534 7.96253 8.66442C7.85391 8.7735 7.79288 8.92144 7.79288 9.07571C7.79288 9.22997 7.85391 9.37792 7.96253 9.487C8.07115 9.59608 8.21847 9.65736 8.37209 9.65736H11.7527C11.9063 9.65736 12.0537 9.59608 12.1623 9.487C12.2709 9.37792 12.3319 9.22997 12.3319 9.07571C12.3319 8.92144 12.2709 8.7735 12.1623 8.66442C12.0537 8.55534 11.9063 8.49406 11.7527 8.49406ZM11.7527 6.64053H3.1335C2.97988 6.64053 2.83256 6.70181 2.72394 6.81089C2.61532 6.91997 2.55429 7.06791 2.55429 7.22218C2.55429 7.37644 2.61532 7.52439 2.72394 7.63347C2.83256 7.74255 2.97988 7.80383 3.1335 7.80383H11.7527C11.9063 7.80383 12.0537 7.74255 12.1623 7.63347C12.2709 7.52439 12.3319 7.37644 12.3319 7.22218C12.3319 7.06791 12.2709 6.91997 12.1623 6.81089C12.0537 6.70181 11.9063 6.64053 11.7527 6.64053ZM32.3731 24.7823C30.4528 24.7791 28.5867 25.4213 27.072 26.6067L28.1526 27.6924C28.4237 27.9645 28.5855 28.3273 28.607 28.7116C28.6285 29.0959 28.5082 29.4746 28.2691 29.7754C28.4041 30.0601 28.5235 30.352 28.6269 30.6498C29.007 30.6924 29.3581 30.8741 29.6132 31.1602C29.8684 31.4464 30.0096 31.8168 30.0099 32.2009V32.9939H41C40.8818 30.777 39.9217 28.69 38.3175 27.1624C36.7133 25.6349 34.587 24.783 32.3763 24.7823H32.3731ZM32.3731 15.3175C33.1358 15.3172 33.8815 15.5441 34.5158 15.9695C35.1501 16.3948 35.6446 16.9996 35.9367 17.7071C36.2287 18.4147 36.3053 19.1934 36.1566 19.9447C36.008 20.696 35.6408 21.3861 35.1016 21.9278C34.5623 22.4695 33.8752 22.8385 33.1271 22.988C32.3791 23.1375 31.6036 23.0609 30.8989 22.7678C30.1942 22.4748 29.5919 21.9784 29.1681 21.3416C28.7443 20.7047 28.5181 19.956 28.5181 19.19C28.518 18.6815 28.6177 18.178 28.8114 17.7082C29.0051 17.2385 29.289 16.8116 29.6469 16.452C30.0049 16.0924 30.4299 15.8071 30.8976 15.6125C31.3654 15.4178 31.8667 15.3176 32.3731 15.3175ZM8.63595 30.4159C6.42384 30.4156 4.29575 31.2667 2.68958 32.7942C1.0834 34.3217 0.121319 36.4093 0.00128703 38.6275H13.9666C13.766 38.3501 13.6613 38.0145 13.6684 37.6718C13.6755 37.3291 13.794 36.9982 14.0058 36.7294C13.8707 36.4447 13.7512 36.1528 13.648 35.855C13.2679 35.8124 12.9168 35.6307 12.6617 35.3445C12.4065 35.0584 12.2653 34.688 12.265 34.3039V32.199C12.2642 31.8934 12.3538 31.5944 12.5224 31.3401C11.317 30.7303 9.98567 30.4137 8.63595 30.4159Z" fill="black"/>
</svg>
