<svg width="21" height="38" viewBox="0 0 21 38" fill="none" xmlns="http://www.w3.org/2000/svg">
<path d="M9.54466 0.813231C9.54466 1.13011 9.54466 1.45104 9.54466 1.76792C9.54466 2.63323 9.54466 3.50261 9.54466 4.36792C9.54466 5.65167 9.54466 6.93542 9.54466 8.21511C9.54466 9.77917 9.54466 11.3473 9.54466 12.9114C9.54466 14.6339 9.54466 16.3564 9.54466 18.0748C9.54466 19.8054 9.54466 21.536 9.54466 23.2667C9.54466 24.8795 9.54466 26.4964 9.54466 28.1092C9.54466 29.4742 9.54466 30.8392 9.54466 32.2001C9.54466 33.1792 9.54466 34.1623 9.54466 35.1414C9.54466 35.6045 9.53646 36.0717 9.54466 36.5348C9.54466 36.5551 9.54466 36.5754 9.54466 36.5957C9.54466 37.0223 9.92201 37.4285 10.365 37.4082C10.8079 37.3879 11.1853 37.0507 11.1853 36.5957C11.1853 36.2789 11.1853 35.9579 11.1853 35.641C11.1853 34.7757 11.1853 33.9064 11.1853 33.041C11.1853 31.7573 11.1853 30.4735 11.1853 29.1939C11.1853 27.6298 11.1853 26.0617 11.1853 24.4976C11.1853 22.7751 11.1853 21.0526 11.1853 19.3342C11.1853 17.6035 11.1853 15.8729 11.1853 14.1423C11.1853 12.5295 11.1853 10.9126 11.1853 9.29979C11.1853 7.93479 11.1853 6.56979 11.1853 5.20886C11.1853 4.22979 11.1853 3.24667 11.1853 2.26761C11.1853 1.80448 11.1935 1.33729 11.1853 0.874168C11.1853 0.853856 11.1853 0.833543 11.1853 0.813231C11.1853 0.386669 10.8079 -0.0195815 10.365 0.000731025C9.9179 0.0210435 9.54466 0.358231 9.54466 0.813231Z" fill="white"/>
<path d="M0.0373897 25.4446C0.324499 27.3702 1.19813 29.2309 2.70751 30.5146C3.91337 31.5384 5.38583 32.1884 6.93212 32.5134C7.9452 32.7287 8.9993 32.8343 10.037 32.7977C11.6161 32.7449 13.187 32.6881 14.7251 32.2777C16.3001 31.8552 17.8628 31.0752 18.9169 29.8118C19.6634 28.9181 20.1843 27.8496 20.377 26.704C20.4878 26.0581 20.5411 25.3959 20.4591 24.7459C20.4468 24.6443 20.4345 24.5387 20.4181 24.4371C20.4304 24.5103 20.4509 24.689 20.4386 24.5265C20.4345 24.4696 20.4263 24.4168 20.4181 24.3599C20.3975 24.1934 20.377 24.0268 20.3442 23.8643C20.3073 23.6653 20.254 23.4662 20.1884 23.2752C19.8972 22.4221 19.405 21.6584 18.7651 21.0246C17.5593 19.8262 15.9391 19.0868 14.3313 18.5831C13.1583 18.2174 11.9483 17.9777 10.7302 17.8315C10.6235 17.8193 10.5169 17.8071 10.4061 17.799C10.3938 17.799 10.3774 17.7949 10.3651 17.7949C10.1929 17.7787 10.0247 17.7624 9.85243 17.7462C9.7745 17.7381 9.69657 17.7299 9.61864 17.7218C9.57352 17.7177 9.53251 17.7096 9.48739 17.7056C9.48329 17.7056 9.27411 17.6771 9.40126 17.6934C9.5161 17.7096 9.28641 17.6771 9.2536 17.6731C9.17157 17.6609 9.08544 17.6487 9.00341 17.6365C8.84344 17.6121 8.67938 17.5837 8.51942 17.5553C8.22411 17.5024 7.9288 17.4374 7.63759 17.3684C7.11259 17.2424 6.59579 17.0881 6.08719 16.9052C5.97645 16.8646 5.86161 16.8199 5.75087 16.7752C5.68934 16.7509 5.50477 16.6574 5.73036 16.7671C5.67704 16.7387 5.61962 16.7184 5.56219 16.694C5.35712 16.6006 5.15204 16.5031 4.95516 16.4015C4.59423 16.2106 4.24559 15.9993 3.91337 15.7596C3.87235 15.7312 3.83544 15.7027 3.79442 15.6743C3.66317 15.5809 3.93387 15.784 3.83134 15.7027C3.75751 15.6459 3.68368 15.5849 3.61395 15.524C3.4827 15.4143 3.35145 15.2965 3.22841 15.1746C3.11356 15.0609 2.99872 14.9431 2.89208 14.8212C2.84286 14.7643 2.79364 14.7074 2.74442 14.6506C2.72391 14.6221 2.6993 14.5977 2.6788 14.5693C2.56805 14.4312 2.79774 14.7277 2.70751 14.6059C2.53934 14.3784 2.38348 14.1468 2.24403 13.9031C2.18251 13.7893 2.12098 13.6756 2.06766 13.5618C2.04305 13.509 2.01844 13.4562 1.99384 13.3993C1.93641 13.2693 2.01844 13.4724 2.03485 13.4968C2.01844 13.4724 2.00614 13.4318 1.99794 13.4034C1.85028 13.0377 1.73954 12.6559 1.67391 12.2699C1.66571 12.2334 1.66161 12.1968 1.65751 12.1602C1.6329 12.0059 1.69032 12.4284 1.66981 12.2537C1.66161 12.1927 1.65751 12.1277 1.6493 12.0668C1.6411 11.9774 1.637 11.8881 1.637 11.7946C1.637 11.7581 1.637 11.7256 1.637 11.689C1.6411 11.4777 1.6452 11.2665 1.66161 11.0593C1.66981 10.9456 1.68622 10.8277 1.69852 10.714C1.70673 10.6084 1.66981 10.8968 1.68622 10.7952C1.69032 10.7668 1.69442 10.7343 1.69852 10.7059C1.71083 10.6409 1.71903 10.5759 1.73134 10.5109C1.77235 10.2996 1.82157 10.0924 1.88309 9.88931C1.9118 9.79181 1.94462 9.69431 1.97743 9.59681C2.01434 9.49525 2.07997 9.3815 2.10048 9.27994C2.10458 9.26775 2.01844 9.45869 2.05536 9.38556C2.06766 9.36119 2.07587 9.33681 2.08817 9.31244C2.10868 9.27181 2.12508 9.23119 2.14559 9.19056C2.19071 9.09712 2.23583 9.00775 2.28915 8.91837C2.38758 8.74369 2.49423 8.57712 2.60907 8.41056C2.63368 8.374 2.65829 8.3415 2.687 8.30494C2.77313 8.19119 2.72391 8.27244 2.65829 8.33744C2.72391 8.26837 2.78134 8.18712 2.84696 8.114C2.97411 7.97181 3.10946 7.83369 3.24891 7.69962C3.38016 7.57775 3.51552 7.464 3.65497 7.35431C3.737 7.28931 3.4786 7.48431 3.63036 7.37462C3.66317 7.35025 3.69598 7.32587 3.7288 7.3015C3.81083 7.24462 3.89286 7.18775 3.97489 7.13087C4.27841 6.93181 4.59833 6.75712 4.92645 6.60275C5.00028 6.56619 5.07411 6.53369 5.14794 6.50119C5.18895 6.48087 5.23407 6.46462 5.27509 6.44431C5.27919 6.44431 5.0618 6.52962 5.17665 6.48494C5.19716 6.47681 5.21766 6.46869 5.24227 6.46056C5.41044 6.3915 5.5827 6.33056 5.75907 6.26962C6.39481 6.05431 7.05106 5.89587 7.71141 5.78619C7.85907 5.76181 8.00262 5.7415 8.15028 5.72119C8.25282 5.70494 7.90008 5.75369 8.07235 5.73337C8.10926 5.72931 8.14618 5.72525 8.18309 5.72119C8.25692 5.71306 8.32665 5.70494 8.40048 5.69681C8.65477 5.66837 8.90907 5.64806 9.16337 5.63587C9.49969 5.61556 9.84012 5.60744 10.1765 5.61556C10.7507 5.62775 11.3249 5.63181 11.8991 5.69275C11.9647 5.70087 12.0304 5.70494 12.0919 5.71306C12.3052 5.73744 11.9688 5.69275 12.1165 5.71712C12.2641 5.73744 12.4159 5.76181 12.5636 5.79025C12.822 5.839 13.0763 5.89181 13.3306 5.96087C13.5684 6.02181 13.8063 6.09494 14.0401 6.17619C14.1468 6.21275 14.2575 6.25337 14.3641 6.294C14.4134 6.31431 14.4626 6.33462 14.5118 6.35087C14.6061 6.38744 14.3477 6.27775 14.438 6.31837C14.4708 6.33462 14.5036 6.34681 14.5405 6.36306C14.9343 6.53775 15.3157 6.74087 15.6766 6.9765C15.7587 7.02931 15.8407 7.08619 15.9227 7.14306C15.9597 7.16744 15.9966 7.19587 16.0335 7.22025C16.0622 7.24056 16.2263 7.3665 16.1032 7.27306C15.9843 7.18369 16.1114 7.27712 16.1401 7.3015C16.177 7.334 16.2181 7.36244 16.255 7.39494C16.3288 7.45587 16.4026 7.52087 16.4765 7.58587C16.7472 7.82556 16.9974 8.08556 17.227 8.36181C17.2804 8.42681 17.3296 8.49181 17.3829 8.55275C17.4034 8.57712 17.2475 8.37806 17.346 8.504C17.3747 8.54462 17.4034 8.58119 17.4321 8.62181C17.5265 8.75181 17.6208 8.88587 17.7069 9.01994C17.871 9.27181 18.0186 9.53181 18.154 9.79994C18.2155 9.92181 18.2729 10.0477 18.3304 10.1737C18.3427 10.2021 18.355 10.2265 18.3673 10.2549C18.2401 9.97462 18.3057 10.1087 18.3345 10.1737C18.3591 10.2346 18.3837 10.2915 18.4042 10.3524C18.5436 10.7181 18.6626 11.0918 18.7487 11.4737C18.7733 11.5793 18.7938 11.6809 18.8102 11.7865C18.8143 11.8149 18.8184 11.8434 18.8225 11.8718C18.8431 11.9774 18.7856 11.5956 18.7979 11.689C18.8472 12.1115 19.1384 12.5218 19.6182 12.5015C20.0202 12.4852 20.4919 12.1399 20.4386 11.689C20.3647 11.0837 20.2048 10.4906 19.9833 9.92181C19.487 8.64212 18.7446 7.45994 17.7274 6.51744C16.3124 5.20931 14.4872 4.42525 12.58 4.149C11.5218 3.99869 10.4348 3.94994 9.36434 3.99869C8.12157 4.0515 6.86649 4.23431 5.67294 4.59587C4.18407 5.04681 2.71981 5.79431 1.68622 6.96837C1.08329 7.65087 0.632117 8.43494 0.35321 9.30025C0.0989136 10.0762 0.0127805 10.8927 0.000475855 11.7052C-0.00772727 12.2659 0.0907105 12.8387 0.250671 13.3749C0.603406 14.5327 1.27606 15.589 2.162 16.4218C3.54423 17.7218 5.35712 18.4978 7.19051 18.9406C8.24051 19.1924 9.31102 19.3346 10.3856 19.4281C10.4882 19.4362 10.5866 19.4484 10.6891 19.4606C10.7261 19.4646 10.7671 19.4687 10.804 19.4727C10.8286 19.4768 10.8491 19.4768 10.8737 19.4809C11.0091 19.4971 10.7753 19.4727 10.7466 19.4646C10.8409 19.4971 10.9681 19.4971 11.0706 19.5093C12.4118 19.7124 13.7489 20.0456 15.0081 20.5534C15.0409 20.5656 15.2009 20.6306 15.0532 20.5696C14.9056 20.5087 15.0655 20.5737 15.0983 20.5899C15.2009 20.6346 15.2993 20.6793 15.3977 20.724C15.5782 20.8093 15.7587 20.8987 15.9391 20.9921C16.2919 21.1831 16.6364 21.3902 16.9604 21.6259C16.9974 21.6502 17.0343 21.6787 17.0671 21.7071C17.145 21.764 16.9153 21.5893 16.9932 21.6502C17.0138 21.6665 17.0343 21.6827 17.0548 21.699C17.1327 21.764 17.2147 21.829 17.2886 21.894C17.4362 22.024 17.5798 22.1581 17.7151 22.3003C17.7808 22.3693 17.8423 22.4384 17.9038 22.5115C17.9325 22.544 17.9612 22.5806 17.9899 22.6131C17.8915 22.479 18.1212 22.7674 17.9899 22.6131C18.1048 22.7715 18.2155 22.9299 18.314 23.0965C18.3632 23.1777 18.4083 23.2631 18.4493 23.3443C18.4698 23.3849 18.4903 23.4256 18.5067 23.4621C18.519 23.4865 18.5272 23.5068 18.5395 23.5312C18.597 23.649 18.4739 23.3687 18.5108 23.4621C18.5806 23.6531 18.6503 23.8359 18.6995 24.0349C18.7241 24.1324 18.7446 24.2299 18.7651 24.3274C18.7733 24.3721 18.7815 24.4209 18.7897 24.4656C18.8143 24.5915 18.7774 24.3762 18.7774 24.3721C18.7815 24.4046 18.7856 24.4412 18.7897 24.4737C18.8061 24.6118 18.8184 24.7499 18.839 24.8881C18.8431 24.9043 18.8431 24.9246 18.8472 24.9409C18.7856 24.5712 18.8184 24.7296 18.8307 24.8271C18.8431 24.9287 18.8513 25.0303 18.8554 25.1359C18.8718 25.4649 18.8595 25.7899 18.8225 26.119C18.8184 26.1677 18.8102 26.2165 18.8061 26.2652C18.839 25.9809 18.8266 26.1149 18.8102 26.2287C18.7938 26.3384 18.7733 26.444 18.7487 26.5496C18.6995 26.7812 18.638 27.0087 18.56 27.2321C18.519 27.354 18.4698 27.4759 18.4206 27.5977C18.3796 27.6993 18.519 27.3743 18.4575 27.5084C18.4452 27.5368 18.4329 27.5612 18.4206 27.5896C18.3919 27.6506 18.3632 27.7156 18.3304 27.7765C18.2032 28.0243 18.0597 28.2681 17.8997 28.4956C17.8546 28.5565 17.8095 28.6174 17.7643 28.6784C17.7972 28.6296 17.9038 28.5037 17.8136 28.6174C17.7849 28.6499 17.7561 28.6865 17.7274 28.719C17.6249 28.8368 17.5182 28.9546 17.4075 29.0643C17.2927 29.1821 17.1696 29.2918 17.0466 29.3974C16.9891 29.4462 16.9276 29.4949 16.8661 29.5437C16.7882 29.6087 17.0466 29.4137 16.8989 29.5193C16.8579 29.5477 16.8169 29.5802 16.7759 29.6087C16.4682 29.8281 16.1401 30.019 15.7997 30.1856C15.7095 30.2302 15.6192 30.2709 15.529 30.3115C15.4839 30.3318 15.4429 30.3481 15.3977 30.3684C15.3075 30.409 15.5741 30.2993 15.4798 30.3359C15.447 30.3481 15.4141 30.3603 15.3813 30.3765C15.1722 30.4578 14.963 30.5349 14.7497 30.5999C14.2739 30.7502 13.7858 30.8681 13.2936 30.9534C13.1624 30.9778 13.0311 30.9981 12.904 31.0184C12.8425 31.0265 12.7768 31.0346 12.7153 31.0468C12.6046 31.0631 12.8835 31.0265 12.7686 31.0387C12.7235 31.0427 12.6743 31.0509 12.6292 31.0549C12.3298 31.0915 12.0304 31.1159 11.7268 31.1362C11.1936 31.1687 10.6645 31.1687 10.1313 31.1931C9.7745 31.2093 9.41356 31.2052 9.05673 31.189C8.79422 31.1768 8.53173 31.1524 8.27333 31.124C8.2036 31.1159 8.13387 31.1077 8.06415 31.0996C8.40868 31.1402 8.11337 31.1037 8.02313 31.0915C7.86317 31.0671 7.70321 31.0387 7.54735 31.0102C6.86239 30.8762 6.22255 30.6568 5.5704 30.4252C5.65243 30.4537 5.75497 30.5024 5.61962 30.4456C5.5827 30.4293 5.54579 30.4131 5.50477 30.3968C5.41864 30.3562 5.33251 30.3156 5.24637 30.2749C5.07411 30.1896 4.90184 30.0962 4.73368 29.9987C4.56962 29.9012 4.40555 29.7996 4.24969 29.6899C4.17177 29.6371 4.09794 29.5802 4.02001 29.5234C3.91747 29.4462 4.18817 29.6574 4.05282 29.5477C4.0077 29.5112 3.96259 29.4746 3.92157 29.4381C3.60985 29.1781 3.32274 28.8937 3.06024 28.5849C3.03153 28.5484 2.99872 28.5118 2.97001 28.4753C2.85106 28.3331 3.08485 28.6296 2.97411 28.4793C2.90848 28.3899 2.84286 28.3006 2.78133 28.2112C2.65829 28.0284 2.54344 27.8415 2.4368 27.6506C2.33016 27.4556 2.24813 27.2443 2.14149 27.0493C2.13739 27.0412 2.21122 27.2199 2.17841 27.1387C2.1661 27.1102 2.1538 27.0818 2.14149 27.0534C2.12098 27.0046 2.10048 26.9518 2.08407 26.9031C2.03895 26.7852 1.99794 26.6634 1.95692 26.5415C1.79696 26.0499 1.68622 25.5462 1.61239 25.0384C1.55087 24.6159 0.988953 24.3477 0.603406 24.4696C0.144031 24.5956 -0.0323369 24.9937 0.0373897 25.4446Z" fill="white"/>
</svg>
