<svg width="29" height="40" viewBox="0 0 29 40" fill="none" xmlns="http://www.w3.org/2000/svg">
<path d="M12.6519 32.3993C12.5879 32.3993 12.4599 32.3993 12.3959 32.3353C11.8838 32.2073 11.5638 31.6953 11.6918 31.1832L15.7881 15.8221C15.9161 15.3101 16.4281 14.9901 16.9402 15.1181C17.4522 15.2461 17.7722 15.7581 17.6442 16.2702L13.5479 31.6313C13.4839 32.1433 13.0359 32.3993 12.6519 32.3993Z" fill="white"/>
<path d="M19.1804 32.3999C17.2603 32.3999 15.6602 30.9278 15.6602 29.0717V27.0236C15.6602 25.2314 17.2603 23.6953 19.1804 23.6953C21.1005 23.6953 22.7007 25.1674 22.7007 27.0236V29.0717C22.7007 30.9278 21.1005 32.3999 19.1804 32.3999ZM19.1804 25.6795C18.2843 25.6795 17.5803 26.3195 17.5803 27.0876V29.1357C17.5803 29.9038 18.2843 30.5438 19.1804 30.5438C20.0765 30.5438 20.7805 29.9038 20.7805 29.1357V27.0876C20.7805 26.3195 20.0765 25.6795 19.1804 25.6795Z" fill="white"/>
<path d="M10.2195 23.7593C8.29933 23.7593 6.69922 22.2872 6.69922 20.4311V18.3829C6.69922 16.5908 8.29933 15.0547 10.2195 15.0547C12.1396 15.0547 13.7397 16.5268 13.7397 18.3829V20.4311C13.7397 22.2872 12.1396 23.7593 10.2195 23.7593ZM10.2195 17.0388C9.32341 17.0388 8.61936 17.6789 8.61936 18.4469V20.4951C8.61936 21.2631 9.32341 21.9032 10.2195 21.9032C11.1155 21.9032 11.8196 21.2631 11.8196 20.4951V18.4469C11.8196 17.6789 11.1155 17.0388 10.2195 17.0388Z" fill="white"/>
<path d="M17.3242 6.09257C17.1322 6.09257 16.9402 6.02856 16.7482 5.90055C16.3001 5.58053 16.2361 5.00449 16.5561 4.55646L18.3483 2.18829L14.828 2.57231C14.764 2.57231 14.7 2.57231 14.636 2.57231L11.1158 2.18829L12.9079 4.55646C13.2279 5.00449 13.1639 5.58053 12.7159 5.90055C12.2678 6.22058 11.6918 6.15657 11.3718 5.70854L8.23554 1.54824C7.97952 1.22822 7.97952 0.84419 8.17154 0.524167C8.36355 0.204143 8.74758 0.0121289 9.13161 0.0121289L14.764 0.652175L20.3964 0.0121289C20.7804 -0.0518758 21.1645 0.140139 21.3565 0.524167C21.5485 0.908194 21.5485 1.29222 21.2925 1.54824L18.1563 5.70854C17.9002 5.96456 17.5802 6.09257 17.3242 6.09257Z" fill="white"/>
<path d="M14.7 39.1195C8.17157 39.1195 0.811035 39.1195 0.811035 29.5828C0.811035 20.6862 7.01948 7.11719 14.7 7.11719C22.3806 7.11719 28.589 20.6862 28.589 29.5828C28.589 39.1195 21.2285 39.1195 14.7 39.1195ZM14.7 9.03733C11.8838 9.03733 8.87562 11.6615 6.44344 16.1418C4.20328 20.3021 2.79518 25.5505 2.79518 29.5188C2.73117 36.8153 7.2755 37.1994 14.7 37.1994C22.1246 37.1994 26.6689 36.8153 26.6689 29.5828C26.6689 25.5505 25.2608 20.3021 23.0206 16.2058C20.5245 11.6615 17.5162 9.03733 14.7 9.03733Z" fill="white"/>
</svg>
