<svg width="31" height="47" viewBox="0 0 31 47" fill="none" xmlns="http://www.w3.org/2000/svg">
<path d="M7.63015 30.3678C6.99204 30.3678 6.41195 30.0778 6.00588 29.6137C5.59982 29.1496 5.42579 28.5115 5.4838 27.9314L6.52797 20.4482C6.58598 20.1582 6.46996 19.8101 6.23792 19.5781L0.669012 14.5312C0.0889177 13.9512 -0.14312 13.139 0.0889177 12.3849C0.320956 11.6308 0.959061 11.0507 1.77119 10.8767L9.1964 9.60044C9.48645 9.54243 9.7765 9.3104 9.89252 9.02035L13.025 2.17523C13.3731 1.42111 14.1272 0.957031 14.9974 0.957031C15.8095 0.957031 16.5056 1.3631 16.9117 2.11722L20.4502 8.78831C20.6243 9.07836 20.8563 9.25239 21.2044 9.3104L28.6876 10.1805C29.4997 10.2966 30.1958 10.8186 30.4279 11.5728C30.7179 12.3269 30.5439 13.197 29.9638 13.7771L24.7429 19.172C24.5109 19.404 24.3949 19.7521 24.5109 20.0422L26.0192 27.4094C26.1352 28.0475 25.9611 28.6856 25.5551 29.2076C24.917 29.9618 23.8728 30.1938 22.9447 29.7877L16.1575 26.4812C15.8675 26.3652 15.5194 26.3652 15.2294 26.4812L8.67432 30.1938C8.32626 30.3098 7.97821 30.3678 7.63015 30.3678ZM14.9974 2.05921C14.5913 2.05921 14.2432 2.29125 14.1272 2.63931L10.9947 9.48442C10.7047 10.1225 10.1246 10.5866 9.42844 10.7026L2.00323 11.9788C1.65517 12.0368 1.36513 12.3269 1.24911 12.6749C1.13309 13.023 1.24911 13.4291 1.53915 13.6611L7.10806 18.7659C7.63015 19.23 7.86219 19.9261 7.80418 20.6222L6.76001 28.1055C6.702 28.3955 6.81802 28.6856 6.99205 28.8596C7.28209 29.2076 7.80418 29.3237 8.21024 29.0916L14.7653 25.379C15.3454 25.031 16.1575 25.031 16.7376 25.321L23.4087 28.6856C23.8148 28.9176 24.3369 28.7436 24.6269 28.3955C24.801 28.1635 24.859 27.8734 24.801 27.5834L23.2927 20.2162C23.1767 19.5201 23.3507 18.8239 23.8728 18.3019L29.0937 12.907C29.3837 12.6169 29.4417 12.2689 29.3257 11.9208C29.2097 11.5728 28.9196 11.3407 28.5136 11.2827L21.0303 10.4126C20.3342 10.3546 19.6961 9.89049 19.4061 9.3104L15.8675 2.5813C15.6935 2.23324 15.4034 2.05921 14.9974 2.05921Z" fill="white"/>
<path d="M17.3758 29.3267H14.2433C13.7212 29.3267 13.2571 29.0366 13.0251 28.6305C12.7931 28.1665 12.7931 27.6444 13.0251 27.2383L13.6632 26.0781L14.1853 26.3682H14.7654V26.5422L14.0113 27.8184C13.9533 27.9344 14.0113 28.0504 14.0113 28.0504C14.0113 28.1085 14.1273 28.1665 14.2433 28.1665H17.3758C17.4918 28.1665 17.5498 28.1085 17.6079 28.0504C17.6079 27.9924 17.6659 27.9344 17.6079 27.8184L16.9117 26.6002V26.4262H17.4918L18.0139 26.1361L18.652 27.2383C18.8841 27.7024 18.8841 28.2245 18.652 28.6305C18.304 29.0366 17.8399 29.3267 17.3758 29.3267Z" fill="white"/>
<path d="M16.3897 29.0352H15.2295V46.1479H16.3897V29.0352Z" fill="white"/>
</svg>
