<svg width="56" height="55" viewBox="0 0 56 55" fill="none" xmlns="http://www.w3.org/2000/svg">
<path d="M47.57 26.937C47.6435 26.9028 47.7206 26.8746 47.8007 26.8554L52.7088 25.1095L47.6802 18.6463L29.9889 24.9656L34.7302 31.5037L47.57 26.937ZM24.1077 11.0345C23.6462 10.5248 23.6807 9.73308 24.1856 9.26713C24.6906 8.80117 25.4748 8.83605 25.9363 9.34577L27.2879 10.8364L30.0249 7.54429C30.4652 7.01304 31.2494 6.94256 31.7756 7.38699C32.3018 7.83143 32.3717 8.6231 31.9314 9.15435L28.2845 13.5408L28.1677 13.6588C27.6627 14.1248 26.8785 14.0899 26.417 13.5802L24.1077 11.0345ZM28.7681 0.322765L30.3843 1.56704L32.418 1.30364C32.9846 1.23093 33.5108 1.55739 33.7196 2.06564L34.5104 3.97025L36.3978 4.76712C36.9497 4.99787 37.2481 5.58551 37.1423 6.15608L36.8909 8.13563L38.1345 9.78205C38.4858 10.2458 38.4652 10.8794 38.1235 11.3179L37.6355 11.9634L48.4754 15.9633C48.7077 16.0361 48.9208 16.1778 49.0825 16.3855L55.7347 24.9352C55.8162 25.0405 55.8824 25.1607 55.9287 25.2935C56.1565 25.9464 55.817 26.6632 55.1702 26.8932L49.3405 28.9662V45.8889C49.3405 46.4654 48.9554 46.9514 48.4313 47.0991L28.4234 54.4846C28.139 54.5884 27.8406 54.581 27.5768 54.4846L7.48139 47.0672C6.97647 46.8824 6.66264 46.4016 6.66264 45.8889L6.6597 28.9662L0.880688 26.911C0.73737 26.8672 0.599932 26.796 0.474988 26.6973C-0.0644749 26.2692 -0.15855 25.4798 0.265523 24.9352L6.91767 16.3855C7.05732 16.2082 7.24547 16.0657 7.47184 15.9826L18.3647 11.9634L17.8657 11.3031C17.5144 10.8393 17.535 10.2057 17.8767 9.76721L19.1092 8.13563L18.8483 6.08262C18.7763 5.51057 19.0997 4.97932 19.6031 4.76861L21.4898 3.97025L22.2791 2.06489C22.5077 1.50768 23.0898 1.20644 23.655 1.31329L25.6159 1.56704L27.2468 0.311636C27.7061 -0.0430226 28.3338 -0.0222475 28.7681 0.322765ZM37.0791 14.4267L37.1519 15.0025C37.2239 15.5746 36.9005 16.1058 36.397 16.3165L34.5104 17.1149L33.721 19.0202C33.4925 19.5774 32.9104 19.8787 32.3452 19.7718L30.3843 19.5181L28.7534 20.7735C28.2941 21.1281 27.6664 21.1074 27.2321 20.7624L25.6159 19.5181L23.5822 19.7815C23.0156 19.8542 22.4893 19.5277 22.2806 19.0195L21.4898 17.1149L19.6024 16.318C19.0504 16.0872 18.7521 15.4996 18.8579 14.929L18.9218 14.4275L11.559 17.1438L28.0001 23.0157L44.4405 17.1431L37.0791 14.4267ZM29.2819 3.87083L28.0001 2.88402L26.7183 3.87083C26.4677 4.06226 26.145 4.15945 25.8092 4.11642L24.2084 3.90941L23.5866 5.40966C23.4646 5.7057 23.2317 5.955 22.9156 6.08707L21.4295 6.71477L21.6272 8.27438C21.6846 8.60604 21.6096 8.95995 21.3913 9.24858L20.4138 10.5426L21.3913 11.8365C21.5809 12.0896 21.6772 12.4153 21.6346 12.7544L21.4295 14.3703L22.9156 14.998C23.2089 15.1212 23.4558 15.3564 23.5866 15.6755L24.2084 17.1757L25.7533 16.9761C26.0818 16.9182 26.4324 16.9939 26.7183 17.2143L28.0001 18.2011L29.2819 17.2143C29.5325 17.0229 29.8551 16.9257 30.191 16.9687L31.7918 17.1757L32.4135 15.6755C32.5355 15.3794 32.7685 15.1301 33.0846 14.998L34.5707 14.3703L34.373 12.8107C34.3156 12.4791 34.3906 12.1252 34.6089 11.8365L35.5864 10.5426L34.6089 9.24858C34.4193 8.99557 34.323 8.66985 34.3656 8.33077L34.5707 6.71477L33.0846 6.08707C32.7913 5.96391 32.5444 5.72871 32.4135 5.40966L31.7918 3.90941L30.2469 4.109C29.9183 4.16687 29.5678 4.09119 29.2819 3.87083ZM8.27515 26.8821L8.30382 26.8917L8.33248 26.9021L8.36114 26.9132L21.27 31.5037L26.0113 24.9656L8.31925 18.647L3.29137 25.1095L8.27515 26.8821ZM9.14976 29.8521V45.0141L26.7551 51.5123V28.1857L22.7488 33.7103C22.4379 34.1637 21.8536 34.3707 21.3141 34.1785L9.14976 29.8521ZM29.2451 28.1857V51.5123L46.8504 45.0141V29.8521L34.6861 34.1785C34.1833 34.3573 33.6027 34.1934 33.2712 33.7371L29.2451 28.1857Z" fill="#B0B0B0"/>
</svg>
