<svg width="21" height="20" viewBox="0 0 21 20" fill="none" xmlns="http://www.w3.org/2000/svg">
<path d="M19.3078 10.6932V19.2841C19.3078 19.6794 18.9753 20 18.5652 20H0.742642C0.332504 20 0 19.6794 0 19.2841V2.10217C0 1.70682 0.332504 1.38627 0.742642 1.38627H9.65389C10.064 1.38627 10.3965 1.70682 10.3965 2.10217C10.3965 2.49754 10.064 2.81809 9.65389 2.81809H1.48519V18.5682H17.8226V10.6932C17.8226 10.2979 18.1551 9.97731 18.5652 9.97731C18.9753 9.97731 19.3078 10.2979 19.3078 10.6932ZM17.9926 5.11422L15.6952 2.89943L7.72487 10.5832L7.09297 13.4072L10.0223 12.7981L17.9926 5.11422ZM21 2.2148L18.7027 0L16.8541 1.78215L19.1515 3.99692L21 2.2148Z" fill="black"/>
</svg>
