<svg width="54" height="53" viewBox="0 0 54 53" fill="none" xmlns="http://www.w3.org/2000/svg">
<g id="Management Cases">
<rect width="1920" height="1560" transform="translate(-594 -501)" fill="white"/>
<g id="inner-page">
<g id="Group 183">
<g id="box-01">
<rect id="Rectangle 3" x="-23" y="-80" width="350" height="323" fill="white" stroke="black" stroke-width="2"/>
<path id="Vector" d="M53.8329 20.6775L45.3625 9.75792C45.1926 9.53944 44.9183 9.40952 44.6249 9.40952C44.3315 9.40952 44.0572 9.53944 43.8873 9.75792L35.4169 20.6775C35.2209 20.9304 35.1954 21.2619 35.3507 21.5369C35.506 21.8118 35.816 21.9849 36.1545 21.9849H39.0128V25.6238L33.6215 22.7743V14.9168H37.2861C37.6247 14.9168 37.9347 14.7438 38.09 14.4688C38.2453 14.1938 38.2198 13.8617 38.0238 13.6095L27.7376 0.348976C27.5677 0.129919 27.2934 0 27 0C26.7066 0 26.4323 0.129919 26.2624 0.348393L15.9762 13.6089C15.7802 13.8617 15.7548 14.1932 15.91 14.4682C16.0653 14.7432 16.3753 14.9162 16.7139 14.9162H20.3785V22.7743L14.9872 25.6238V21.9849H17.8455C18.184 21.9849 18.494 21.8118 18.6493 21.5369C18.8046 21.2619 18.7791 20.9298 18.5831 20.6775L10.1127 9.75792C9.94279 9.53944 9.66848 9.40952 9.37508 9.40952C9.08168 9.40952 8.80738 9.53944 8.63745 9.75792L0.167076 20.6775C-0.0289469 20.9304 -0.0544046 21.2619 0.100887 21.5369C0.256178 21.8118 0.566124 21.9849 0.90471 21.9849H3.76296V39.355C3.76296 39.8123 4.16773 40.1829 4.66734 40.1829H10.9865V44.1865C10.9865 44.4824 11.159 44.7557 11.4391 44.9037L26.5475 52.8887C26.6875 52.9627 26.8434 53 27 53C27.1566 53 27.3125 52.9627 27.4525 52.8887L42.5609 44.9037C42.841 44.7557 43.0135 44.4824 43.0135 44.1865V40.1829H49.3327C49.8323 40.1829 50.237 39.8123 50.237 39.355V21.9855H53.0953C53.4339 21.9855 53.7438 21.8124 53.8991 21.5374C54.0544 21.2619 54.0289 20.9304 53.8329 20.6775ZM27 35.2454L13.701 28.2169L27 21.1879L40.299 28.2169L27 35.2454ZM21.2835 13.2605H18.466L27 2.25873L35.534 13.2605H32.7165C32.2169 13.2605 31.8121 13.631 31.8121 14.0884V21.8183L27.4525 19.5141C27.1725 19.3661 26.8275 19.3661 26.5481 19.5141L22.1885 21.8183V14.0884C22.1879 13.631 21.7831 13.2605 21.2835 13.2605ZM5.57236 38.5271V21.157C5.57236 20.6997 5.16758 20.3291 4.66798 20.3291H2.65683L9.37508 11.6677L16.0933 20.3291H14.0822C13.5826 20.3291 13.1778 20.6997 13.1778 21.157V26.5804L11.4391 27.4997C11.159 27.6477 10.9865 27.921 10.9865 28.2169V38.5271H5.57236ZM12.7959 29.6513L26.095 36.6803V50.7378L12.7959 43.7087V29.6513ZM41.2041 43.7087L27.9044 50.7372V36.6797L41.2034 29.6507L41.2041 43.7087ZM49.3327 20.3291C48.8331 20.3291 48.4283 20.6997 48.4283 21.157V38.5271H43.0141V28.2169C43.0141 27.921 42.8416 27.6477 42.5616 27.4997L40.8228 26.5804V21.157C40.8228 20.6997 40.418 20.3291 39.9184 20.3291H37.9073L44.6256 11.6677L51.3438 20.3291H49.3327Z" fill="black"/>
</g>
</g>
</g>
</g>
</svg>
